<svg width="847" height="509" viewBox="0 0 847 509" fill="none" xmlns="http://www.w3.org/2000/svg">
<g clip-path="url(#clip0_1378_4666)">
<path d="M710.447 70.5316C711.399 46.7069 695.764 26.7387 675.525 25.9313C655.285 25.1238 638.106 43.783 637.154 67.6077C636.202 91.4324 651.837 111.401 672.076 112.208C692.315 113.015 709.495 94.3563 710.447 70.5316Z" fill="#EBEBEB"/>
<path d="M699.352 70.2711C698.312 91.98 683.822 109.233 665.945 111.344C667.837 111.799 669.775 112.091 671.76 112.196C691.996 113.234 709.323 94.7564 710.468 70.9476C711.612 47.1273 696.141 26.9931 675.905 25.9549C674.119 25.8616 672.344 25.9316 670.604 26.1299C687.909 30.3177 700.379 48.8071 699.352 70.2711Z" fill="#E0E0E0"/>
<path d="M413.028 492.552C436.774 490.228 455.109 479.014 453.98 467.505C452.851 455.996 432.687 448.551 408.941 450.875C385.195 453.199 366.86 464.413 367.989 475.922C369.117 487.43 389.282 494.876 413.028 492.552Z" fill="#EBEBEB"/>
<path d="M411.337 486.346C389.666 488.049 371.614 481.657 368.438 471.73C368.099 472.849 367.924 473.981 367.947 475.124C368.146 486.719 387.576 494.593 411.349 492.727C435.122 490.861 454.237 479.942 454.038 468.347C454.026 467.32 453.851 466.329 453.536 465.36C450.418 475.626 432.775 484.666 411.337 486.346Z" fill="#E0E0E0"/>
<path d="M107.195 429.003C119.282 418.887 119.412 399.156 107.485 384.932C95.5574 370.708 76.09 367.378 64.0028 377.494C51.9157 387.61 51.7861 407.341 63.7133 421.565C75.6404 435.789 95.1079 439.119 107.195 429.003Z" fill="#EBEBEB"/>
<path d="M70.4456 416.098C81.4215 428.976 98.5626 432.721 110.578 425.523C109.632 426.701 108.569 427.798 107.402 428.813C95.4333 439.067 75.9686 435.917 63.9185 421.79C51.88 407.664 51.8217 387.903 63.79 377.649C64.8526 376.739 65.9735 375.946 67.1412 375.246C58.4772 386.048 59.5865 403.359 70.4456 416.098Z" fill="#E0E0E0"/>
<path d="M65.9217 258.097C66.0997 245.999 59.5323 236.093 51.253 235.972C42.9736 235.85 36.1176 245.559 35.9395 257.656C35.7615 269.754 42.3289 279.66 50.6083 279.782C58.8876 279.903 65.7437 270.195 65.9217 258.097Z" fill="#EBEBEB"/>
<path d="M40.5026 257.522C40.2691 268.546 45.6403 277.831 52.868 279.581C52.0857 279.744 51.28 279.814 50.4744 279.791C42.1957 279.546 35.7036 269.537 35.9605 257.44C36.2174 245.343 43.1415 235.731 51.4201 235.976C52.1558 236 52.868 236.093 53.5686 236.268C46.3876 237.726 40.7362 246.615 40.5026 257.522Z" fill="#E0E0E0"/>
<path d="M754.194 356.116C747.912 367.956 750.995 381.838 761.06 387.134C771.137 392.43 784.39 387.122 790.672 375.282C796.954 363.442 793.871 349.56 783.794 344.264C773.729 338.98 760.476 344.288 754.194 356.116Z" fill="#EBEBEB"/>
<path d="M785.111 372.424C790.832 361.633 788.777 349.14 780.744 343.016C781.783 343.331 782.811 343.751 783.803 344.275C793.88 349.571 796.951 363.453 790.669 375.293C784.387 387.133 771.134 392.429 761.057 387.145C760.17 386.679 759.329 386.142 758.547 385.547C768.11 388.463 779.448 383.097 785.111 372.424Z" fill="#E0E0E0"/>
<path d="M227.915 68.6363C234.062 51.1283 226.985 32.7085 212.107 27.4946C197.229 22.2807 180.185 32.2471 174.037 49.7551C167.89 67.263 174.967 85.6828 189.845 90.8967C204.723 96.1106 221.767 86.1442 227.915 68.6363Z" fill="#EBEBEB"/>
<path d="M180.051 51.6652C174.575 67.6698 180.11 84.3044 192.44 90.9536C190.945 90.7436 189.451 90.3937 187.991 89.9037C173.045 84.8527 165.806 66.5267 171.819 48.9705C177.821 31.4144 194.799 21.2656 209.733 26.3167C211.052 26.7599 212.313 27.3199 213.516 27.9615C199.796 26.0367 185.469 35.8355 180.051 51.6652Z" fill="#E0E0E0"/>
<path d="M590.608 57.6494L595.512 60.5657C596.154 60.939 596.096 61.8839 595.419 62.2222L590.211 64.8235C590.048 64.9052 589.908 65.0335 589.814 65.1852L586.767 70.1429C586.37 70.7845 585.435 70.7611 585.109 70.0962L582.621 64.9635C582.54 64.8002 582.423 64.6719 582.271 64.5786L577.367 61.6623C576.736 61.289 576.783 60.3441 577.46 60.0058L582.668 57.4045C582.832 57.3228 582.972 57.1945 583.065 57.0428L586.113 52.0851C586.51 51.4435 587.444 51.4669 587.771 52.1318L590.258 57.2645C590.34 57.4278 590.456 57.5561 590.608 57.6494Z" fill="#E0E0E0"/>
<path d="M115.507 479.79L120.411 482.706C121.053 483.08 120.994 484.025 120.317 484.363L115.11 486.964C114.946 487.046 114.806 487.174 114.713 487.326L111.665 492.284C111.268 492.925 110.334 492.902 110.007 492.237L107.52 487.104C107.438 486.941 107.321 486.813 107.17 486.719L102.265 483.803C101.635 483.43 101.682 482.485 102.359 482.146L107.567 479.545C107.73 479.463 107.87 479.335 107.964 479.183L111.011 474.226C111.408 473.584 112.342 473.607 112.669 474.272L115.156 479.405C115.226 479.568 115.355 479.708 115.507 479.79Z" fill="#E0E0E0"/>
<path d="M548.866 476.338L553.77 479.254C554.412 479.627 554.354 480.572 553.677 480.911L548.469 483.512C548.305 483.594 548.165 483.722 548.072 483.874L545.024 488.831C544.627 489.473 543.693 489.45 543.366 488.785L540.879 483.652C540.797 483.489 540.681 483.36 540.529 483.267L535.625 480.351C534.994 479.977 535.041 479.033 535.718 478.694L540.926 476.093C541.089 476.011 541.23 475.883 541.323 475.731L544.37 470.774C544.767 470.132 545.702 470.155 546.029 470.82L548.516 475.953C548.597 476.105 548.714 476.245 548.866 476.338Z" fill="#E0E0E0"/>
<path d="M762.733 472.126L767.637 475.042C768.268 475.416 768.221 476.36 767.544 476.699L762.336 479.3C762.173 479.382 762.032 479.51 761.939 479.662L758.892 484.619C758.495 485.261 757.56 485.238 757.233 484.573L754.746 479.44C754.665 479.277 754.548 479.148 754.396 479.055L749.492 476.139C748.861 475.766 748.908 474.821 749.585 474.482L754.793 471.881C754.957 471.799 755.097 471.671 755.19 471.519L758.238 466.562C758.635 465.92 759.569 465.943 759.896 466.608L762.383 471.741C762.453 471.893 762.581 472.033 762.733 472.126Z" fill="#E0E0E0"/>
<path d="M238.796 114.167L243.7 117.083C244.342 117.457 244.284 118.401 243.606 118.74L238.399 121.341C238.235 121.423 238.095 121.551 238.002 121.703L234.954 126.66C234.557 127.302 233.623 127.279 233.296 126.614L230.809 121.481C230.727 121.318 230.61 121.189 230.459 121.096L225.554 118.18C224.924 117.807 224.971 116.862 225.648 116.523L230.856 113.922C231.019 113.84 231.159 113.712 231.253 113.56L234.3 108.603C234.697 107.961 235.631 107.984 235.958 108.649L238.445 113.782C238.515 113.934 238.644 114.074 238.796 114.167Z" fill="#E0E0E0"/>
<path d="M270.147 15.666L275.051 18.5823C275.682 18.9556 275.635 19.9005 274.958 20.2388L269.75 22.8401C269.587 22.9218 269.447 23.0501 269.353 23.2018L266.306 28.1595C265.909 28.8011 264.974 28.7777 264.648 28.1128L262.16 22.9801C262.079 22.8168 261.962 22.6885 261.81 22.5952L256.906 19.6789C256.276 19.3056 256.322 18.3607 256.999 18.0224L262.207 15.4211C262.371 15.3394 262.511 15.2111 262.604 15.0594L265.652 10.1017C266.049 9.46014 266.983 9.48347 267.31 10.1484L269.797 15.2811C269.867 15.4327 269.984 15.5727 270.147 15.666Z" fill="#E0E0E0"/>
<path d="M111.14 58.5823L113.627 60.0638C113.954 60.2504 113.919 60.7287 113.581 60.9037L110.942 62.2219C110.86 62.2685 110.79 62.3269 110.743 62.4085L109.202 64.9282C109.004 65.2548 108.525 65.2432 108.361 64.9049L107.1 62.3035C107.065 62.2219 106.995 62.1519 106.925 62.1052L104.438 60.6237C104.111 60.4371 104.146 59.9588 104.485 59.7838L107.124 58.4657C107.205 58.419 107.275 58.3607 107.322 58.279L108.863 55.7593C109.062 55.4327 109.541 55.4444 109.704 55.7827L110.965 58.384C111 58.4657 111.059 58.5357 111.14 58.5823Z" fill="#00B4F2"/>
<path d="M388.812 44.2112L391.299 45.6927C391.626 45.8793 391.591 46.3576 391.253 46.5326L388.614 47.8508C388.532 47.8974 388.462 47.9558 388.415 48.0374L386.874 50.5571C386.675 50.8837 386.197 50.8721 386.033 50.5338L384.772 47.9324C384.737 47.8508 384.667 47.7808 384.597 47.7341L382.11 46.2526C381.783 46.066 381.818 45.5877 382.157 45.4127L384.796 44.0946C384.877 44.0479 384.947 43.9896 384.994 43.9079L386.535 41.3882C386.734 41.0616 387.213 41.0733 387.376 41.4116L388.637 44.0129C388.672 44.0946 388.731 44.1646 388.812 44.2112Z" fill="#E0E0E0"/>
<path d="M619.797 27.8099L622.284 29.2913C622.611 29.478 622.576 29.9563 622.237 30.1312L619.598 31.4494C619.516 31.4961 619.446 31.5544 619.4 31.636L617.858 34.1557C617.66 34.4824 617.181 34.4707 617.018 34.1324L615.757 31.5311C615.722 31.4494 615.652 31.3794 615.581 31.3328L613.094 29.8513C612.767 29.6646 612.802 29.1864 613.141 29.0114L615.78 27.6932C615.862 27.6465 615.932 27.5882 615.978 27.5066L617.52 24.9869C617.718 24.6602 618.197 24.6719 618.36 25.0102L619.621 27.6115C619.657 27.7049 619.727 27.7749 619.797 27.8099Z" fill="#E0E0E0"/>
<path d="M779.32 35.929L781.807 37.4105C782.134 37.5971 782.099 38.0754 781.761 38.2504L779.122 39.5685C779.04 39.6152 778.97 39.6735 778.923 39.7552L777.382 42.2749C777.183 42.6015 776.705 42.5898 776.541 42.2515L775.28 39.6502C775.245 39.5685 775.175 39.4986 775.105 39.4519L772.618 37.9704C772.291 37.7838 772.326 37.3055 772.664 37.1305L775.303 35.8123C775.385 35.7657 775.455 35.7074 775.502 35.6257L777.043 33.106C777.242 32.7794 777.72 32.7911 777.884 33.1293L779.145 35.7307C779.18 35.8123 779.238 35.8823 779.32 35.929Z" fill="#E0E0E0"/>
<path d="M494.183 501.289L497.102 502.992C497.476 503.214 497.453 503.774 497.056 503.972L493.985 505.547C493.891 505.593 493.81 505.675 493.751 505.768L491.976 508.72C491.743 509.105 491.182 509.093 490.996 508.696L489.489 505.663C489.443 505.57 489.373 505.488 489.279 505.442L486.36 503.739C485.986 503.517 486.01 502.957 486.407 502.759L489.478 501.184C489.571 501.137 489.653 501.056 489.711 500.962L491.486 498.011C491.72 497.626 492.28 497.638 492.467 498.034L493.973 501.067C494.02 501.161 494.102 501.231 494.183 501.289Z" fill="#E0E0E0"/>
<path d="M799.527 289.834L802.446 291.537C802.82 291.759 802.796 292.319 802.399 292.517L799.328 294.092C799.235 294.138 799.153 294.22 799.095 294.313L797.32 297.265C797.087 297.65 796.526 297.638 796.339 297.241L794.833 294.208C794.786 294.115 794.716 294.033 794.623 293.987L791.704 292.284C791.33 292.062 791.353 291.502 791.75 291.304L794.821 289.729C794.915 289.682 794.997 289.601 795.055 289.507L796.83 286.556C797.063 286.171 797.624 286.183 797.811 286.579L799.317 289.612C799.363 289.694 799.445 289.776 799.527 289.834Z" fill="#E0E0E0"/>
<path d="M45.9486 315.789L48.2956 317.189C48.5992 317.376 48.5758 317.819 48.2489 317.982L45.7501 319.23C45.6684 319.265 45.61 319.335 45.5633 319.405L44.1038 321.785C43.9169 322.088 43.4616 322.077 43.3098 321.762L42.1188 319.3C42.0837 319.219 42.0253 319.16 41.9436 319.114L39.5966 317.714C39.293 317.527 39.3164 317.084 39.6433 316.921L42.1421 315.672C42.2238 315.637 42.2822 315.568 42.3289 315.498L43.7885 313.118C43.9753 312.815 44.4307 312.826 44.5825 313.141L45.7735 315.602C45.8202 315.684 45.8786 315.742 45.9486 315.789Z" fill="#E0E0E0"/>
<path d="M294.238 489.263L296.585 490.663C296.888 490.849 296.865 491.293 296.538 491.456L294.039 492.704C293.957 492.739 293.899 492.809 293.852 492.879L292.393 495.259C292.206 495.562 291.751 495.55 291.599 495.235L290.408 492.774C290.373 492.692 290.314 492.634 290.233 492.587L287.886 491.188C287.582 491.001 287.605 490.558 287.932 490.394L290.431 489.146C290.513 489.111 290.571 489.041 290.618 488.971L292.078 486.591C292.264 486.288 292.72 486.3 292.872 486.615L294.063 489.076C294.109 489.158 294.168 489.216 294.238 489.263Z" fill="#E0E0E0"/>
<path d="M741.902 432.196L744.249 433.596C744.552 433.783 744.529 434.226 744.202 434.389L741.703 435.638C741.622 435.673 741.563 435.743 741.516 435.813L740.057 438.192C739.87 438.496 739.415 438.484 739.263 438.169L738.072 435.708C738.037 435.626 737.978 435.568 737.897 435.521L735.55 434.121C735.246 433.934 735.27 433.491 735.596 433.328L738.095 432.08C738.177 432.045 738.235 431.975 738.282 431.905L739.742 429.525C739.928 429.222 740.384 429.233 740.536 429.548L741.727 432.01C741.773 432.091 741.832 432.15 741.902 432.196Z" fill="#E0E0E0"/>
<path d="M692.23 487.606L694.577 489.005C694.88 489.192 694.857 489.635 694.53 489.799L692.031 491.047C691.95 491.082 691.891 491.152 691.845 491.222L690.385 493.602C690.198 493.905 689.743 493.893 689.591 493.578L688.4 491.117C688.365 491.035 688.307 490.977 688.225 490.93L685.878 489.53C685.574 489.344 685.598 488.9 685.925 488.737L688.423 487.489C688.505 487.454 688.563 487.384 688.61 487.314L690.07 484.934C690.257 484.631 690.712 484.643 690.864 484.958L692.055 487.419C692.101 487.489 692.16 487.559 692.23 487.606Z" fill="#AA00CC"/>
<path d="M742.449 130.72L744.994 132.237C745.321 132.435 745.298 132.925 744.947 133.1L742.238 134.453C742.157 134.5 742.087 134.558 742.028 134.64L740.452 137.218C740.242 137.556 739.763 137.533 739.588 137.195L738.292 134.535C738.257 134.453 738.187 134.383 738.105 134.337L735.559 132.82C735.232 132.622 735.256 132.132 735.606 131.957L738.315 130.604C738.397 130.557 738.467 130.499 738.525 130.417L740.102 127.839C740.312 127.501 740.79 127.524 740.966 127.862L742.262 130.522C742.297 130.604 742.367 130.674 742.449 130.72Z" fill="#E0E0E0"/>
<path d="M660.952 175.107L662.167 175.854C662.319 175.947 662.319 176.18 662.155 176.262L660.906 176.857C660.871 176.88 660.836 176.904 660.812 176.939L660.112 178.129C660.018 178.28 659.796 178.269 659.703 178.105L659.061 176.834C659.037 176.799 659.014 176.764 658.967 176.74L657.753 175.994C657.601 175.901 657.601 175.667 657.765 175.586L659.014 174.991C659.049 174.967 659.084 174.944 659.107 174.909L659.808 173.719C659.902 173.567 660.123 173.579 660.217 173.742L660.859 175.014C660.882 175.049 660.917 175.084 660.952 175.107Z" fill="#AA00CC"/>
<path d="M661.913 351.438L663.128 352.185C663.279 352.278 663.279 352.512 663.116 352.593L661.867 353.188C661.832 353.211 661.797 353.235 661.773 353.27L661.073 354.46C660.979 354.611 660.757 354.6 660.664 354.436L660.022 353.165C659.998 353.13 659.975 353.095 659.928 353.071L658.714 352.325C658.562 352.232 658.562 351.998 658.726 351.917L659.975 351.322C660.01 351.298 660.045 351.275 660.068 351.24L660.769 350.05C660.862 349.899 661.084 349.91 661.178 350.074L661.82 351.345C661.843 351.38 661.878 351.415 661.913 351.438Z" fill="#00B4F2"/>
<path d="M710.402 270.633L712.749 272.033C713.052 272.219 713.029 272.663 712.702 272.826L710.203 274.074C710.122 274.109 710.063 274.179 710.016 274.249L708.557 276.629C708.37 276.932 707.915 276.92 707.763 276.605L706.572 274.144C706.537 274.062 706.478 274.004 706.397 273.958L704.05 272.558C703.746 272.371 703.77 271.928 704.096 271.764L706.595 270.516C706.677 270.481 706.735 270.411 706.782 270.341L708.242 267.962C708.428 267.658 708.884 267.67 709.036 267.985L710.227 270.446C710.262 270.528 710.32 270.586 710.402 270.633Z" fill="#00B4F2"/>
<path d="M647.921 188.301L650.279 189.759C650.583 189.945 650.571 190.389 650.256 190.54L647.839 191.695C647.757 191.73 647.699 191.789 647.652 191.859L646.286 194.168C646.111 194.472 645.667 194.437 645.504 194.122L644.254 191.649C644.219 191.567 644.149 191.509 644.079 191.462L641.721 190.004C641.417 189.817 641.429 189.374 641.744 189.222L644.161 188.067C644.243 188.032 644.301 187.974 644.348 187.904L645.714 185.594C645.889 185.291 646.333 185.326 646.496 185.641L647.746 188.114C647.792 188.196 647.851 188.254 647.921 188.301Z" fill="#00B4F2"/>
<path d="M93.1978 256.916L94.9843 258.047C95.2178 258.199 95.2062 258.537 94.961 258.642L93.1044 259.494C93.046 259.517 92.9993 259.564 92.9643 259.622L91.9017 261.372C91.7616 261.593 91.423 261.57 91.3062 261.325L90.3721 259.424C90.3487 259.365 90.302 259.319 90.2437 259.284L88.4572 258.152C88.2236 258 88.2353 257.662 88.4805 257.557L90.3371 256.706C90.3954 256.682 90.4422 256.636 90.4772 256.577L91.5397 254.827C91.6799 254.606 92.0185 254.629 92.1352 254.874L93.0694 256.776C93.1044 256.834 93.1394 256.881 93.1978 256.916Z" fill="#AA00CC"/>
<path d="M131.871 297.289L133.599 298.28C133.821 298.408 133.821 298.723 133.611 298.84L131.906 299.727C131.847 299.75 131.812 299.797 131.777 299.855L130.855 301.546C130.738 301.768 130.411 301.756 130.294 301.535L129.337 299.797C129.302 299.738 129.267 299.692 129.209 299.668L127.48 298.677C127.259 298.548 127.259 298.233 127.469 298.117L129.173 297.23C129.232 297.207 129.267 297.16 129.302 297.102L130.224 295.411C130.341 295.189 130.668 295.201 130.785 295.422L131.742 297.16C131.777 297.207 131.824 297.254 131.871 297.289Z" fill="#AA00CC"/>
<path d="M183.597 163.558L185.325 164.55C185.547 164.678 185.547 164.993 185.337 165.11L183.632 165.996C183.574 166.02 183.539 166.066 183.504 166.124L182.581 167.816C182.465 168.038 182.138 168.026 182.021 167.804L181.064 166.066C181.028 166.008 180.993 165.961 180.935 165.938L179.207 164.946C178.985 164.818 178.985 164.503 179.195 164.386L180.9 163.5C180.958 163.476 180.993 163.43 181.028 163.371L181.951 161.68C182.068 161.458 182.395 161.47 182.511 161.692L183.469 163.43C183.504 163.476 183.551 163.523 183.597 163.558Z" fill="#00B4F2"/>
<path d="M317.808 135.211L319.536 136.203C319.758 136.331 319.758 136.646 319.548 136.763L317.843 137.649C317.785 137.673 317.75 137.719 317.715 137.778L316.792 139.469C316.676 139.691 316.349 139.679 316.232 139.458L315.274 137.719C315.239 137.661 315.204 137.614 315.146 137.591L313.418 136.6C313.196 136.471 313.196 136.156 313.406 136.04L315.111 135.153C315.169 135.13 315.204 135.083 315.239 135.025L316.162 133.333C316.279 133.112 316.606 133.123 316.722 133.345L317.68 135.083C317.715 135.13 317.762 135.176 317.808 135.211Z" fill="#AA00CC"/>
<path d="M119.256 303.786L122.678 305.746C123.121 306.003 123.133 306.633 122.689 306.866L119.303 308.627C119.198 308.686 119.105 308.767 119.058 308.872L117.236 312.22C117.003 312.652 116.361 312.64 116.115 312.185L114.212 308.732C114.154 308.627 114.06 308.534 113.955 308.476L110.534 306.516C110.09 306.259 110.079 305.629 110.522 305.396L113.908 303.635C114.014 303.576 114.107 303.495 114.154 303.39L115.975 300.042C116.209 299.61 116.851 299.622 117.096 300.077L118.999 303.53C119.058 303.635 119.151 303.716 119.256 303.786Z" fill="#00B4F2"/>
<path d="M342.014 117.294L345.435 119.254C345.879 119.51 345.891 120.14 345.447 120.374L342.061 122.135C341.956 122.193 341.862 122.275 341.816 122.38L339.994 125.728C339.761 126.16 339.118 126.148 338.873 125.693L336.97 122.24C336.912 122.135 336.818 122.042 336.713 121.984L333.292 120.024C332.848 119.767 332.836 119.137 333.28 118.904L336.666 117.142C336.771 117.084 336.853 117.002 336.912 116.897L338.733 113.55C338.967 113.118 339.609 113.13 339.854 113.585L341.757 117.037C341.816 117.142 341.909 117.236 342.014 117.294Z" fill="#00B4F2"/>
<path d="M293.053 450.15L296.474 452.109C296.918 452.366 296.93 452.996 296.486 453.229L293.1 454.991C292.995 455.049 292.901 455.131 292.855 455.236L291.033 458.584C290.8 459.015 290.157 459.003 289.912 458.549L288.009 455.096C287.951 454.991 287.857 454.897 287.752 454.839L284.331 452.879C283.887 452.623 283.875 451.993 284.319 451.759L287.705 449.998C287.81 449.94 287.904 449.858 287.951 449.753L289.772 446.405C290.006 445.973 290.648 445.985 290.893 446.44L292.796 449.893C292.855 449.998 292.948 450.091 293.053 450.15Z" fill="#00B4F2"/>
<path d="M611.811 389.339L615.232 391.299C615.676 391.555 615.688 392.185 615.244 392.419L611.858 394.18C611.753 394.238 611.659 394.32 611.612 394.425L609.791 397.773C609.557 398.205 608.915 398.193 608.67 397.738L606.767 394.285C606.708 394.18 606.615 394.087 606.51 394.028L603.089 392.069C602.645 391.812 602.633 391.182 603.077 390.949L606.463 389.187C606.568 389.129 606.662 389.047 606.708 388.942L608.53 385.594C608.763 385.163 609.406 385.175 609.651 385.629L611.554 389.082C611.613 389.187 611.706 389.281 611.811 389.339Z" fill="#AA00CC"/>
<path d="M564.692 136.005L566.922 137.277C567.214 137.44 567.214 137.86 566.934 138L564.727 139.143C564.657 139.178 564.599 139.236 564.564 139.306L563.373 141.488C563.221 141.768 562.8 141.756 562.649 141.464L561.411 139.213C561.376 139.143 561.318 139.085 561.248 139.038L559.017 137.767C558.725 137.603 558.725 137.183 559.006 137.043L561.212 135.9C561.283 135.865 561.341 135.807 561.376 135.737L562.567 133.555C562.719 133.275 563.139 133.287 563.291 133.579L564.529 135.83C564.564 135.912 564.622 135.97 564.692 136.005Z" fill="#00B4F2"/>
<path d="M317.681 82.3129C331.676 77.9802 341.23 68.6909 339.019 61.5647C336.809 54.4385 323.672 52.1739 309.676 56.5066C295.681 60.8392 286.128 70.1285 288.338 77.2547C290.549 84.3809 303.686 86.6455 317.681 82.3129Z" fill="#263238"/>
<path d="M310.393 60.5655C323.097 56.4594 335.322 57.7775 339.327 63.3652C339.292 62.6419 339.164 61.9187 338.907 61.2304C336.35 54.208 322.98 52.1782 309.039 56.6927C295.109 61.2071 285.884 70.5509 288.441 77.5617C288.663 78.18 288.979 78.7633 289.376 79.3115C289.095 72.6273 297.829 64.6367 310.393 60.5655Z" fill="#455A64"/>
<path d="M667.946 464.263C688.133 445.43 694.683 419.662 682.575 406.708C670.467 393.754 644.287 398.52 624.099 417.352C603.912 436.184 597.362 461.952 609.47 474.906C621.578 487.861 647.759 483.095 667.946 464.263Z" fill="#263238"/>
<path d="M661.414 456.985C643.036 474.167 619.648 479.685 606.453 470.75C607.294 472.254 608.298 473.643 609.501 474.914C621.644 487.839 647.835 483.021 668 464.17C688.165 445.319 694.657 419.551 682.514 406.638C681.439 405.494 680.248 404.491 678.964 403.628C686.67 417.37 679.595 439.988 661.414 456.985Z" fill="#455A64"/>
<path d="M535.542 130.537C537.707 116.51 509.739 100.56 473.073 94.9115C436.407 89.2629 404.929 96.0549 402.764 110.082C400.599 124.109 428.567 140.059 465.233 145.707C501.898 151.356 533.377 144.564 535.542 130.537Z" fill="#263238"/>
<path d="M473.645 102.898C506.958 108.567 532.039 122.542 533.44 135.409C534.339 134.208 534.981 132.924 535.343 131.571C539.01 117.783 512.364 101.568 475.817 95.3391C439.269 89.1215 406.669 95.2458 402.99 109.034C402.664 110.259 402.582 111.495 402.722 112.744C410.954 101.72 440.694 97.2872 473.645 102.898Z" fill="#455A64"/>
<path d="M466.336 118.121C474.708 122.496 480.336 130.755 488.089 136.132C493.227 139.69 499.45 142.152 502.918 147.354C502.58 144.31 500.49 141.778 498.411 139.539C492.55 133.216 485.964 127.558 478.83 122.706C475.163 120.209 471.1 117.865 466.675 117.888" fill="#455A64"/>
<g opacity="0.2">
<path d="M466.336 118.121C474.708 122.496 480.336 130.755 488.089 136.132C493.227 139.69 499.45 142.152 502.918 147.354C502.58 144.31 500.49 141.778 498.411 139.539C492.55 133.216 485.964 127.558 478.83 122.706C475.163 120.209 471.1 117.865 466.675 117.888" fill="black"/>
</g>
<path d="M506.17 5.22566C506.019 3.87249 505.773 2.42601 504.851 1.4228C503.59 0.0463018 501.477 -0.0936808 499.608 0.0346365C491.645 0.629562 481.51 12.4231 476.641 18.7456L477.458 53.8463C499.27 42.4377 508.039 22.0819 506.17 5.22566Z" fill="#455A64"/>
<g opacity="0.2">
<path d="M506.17 5.22566C506.019 3.87249 505.773 2.42601 504.851 1.4228C503.59 0.0463018 501.477 -0.0936808 499.608 0.0346365C491.645 0.629562 481.51 12.4231 476.641 18.7456L477.458 53.8463C499.27 42.4377 508.039 22.0819 506.17 5.22566Z" fill="black"/>
</g>
<path d="M471.68 77.3046C475.848 75.9164 480.028 74.6449 484.174 73.9683C488.319 73.2917 492.499 71.5536 496.586 70.5971C501.887 69.3489 506.849 66.9575 511.94 65.0094C517.031 63.0613 522.461 61.5215 527.879 62.1165C523.874 60.0984 519.32 59.3635 514.836 59.3751C510.352 59.3751 505.903 60.0867 501.478 60.7866C495.336 61.7665 489.078 62.7814 483.508 65.5577C477.95 68.3457 472.836 71.2037 471.68 77.3046Z" fill="#455A64"/>
<g opacity="0.2">
<path d="M471.68 77.3046C475.848 75.9164 480.028 74.6449 484.174 73.9683C488.319 73.2917 492.499 71.5536 496.586 70.5971C501.887 69.3489 506.849 66.9575 511.94 65.0094C517.031 63.0613 522.461 61.5215 527.879 62.1165C523.874 60.0984 519.32 59.3635 514.836 59.3751C510.352 59.3751 505.903 60.0867 501.478 60.7866C495.336 61.7665 489.078 62.7814 483.508 65.5577C477.95 68.3457 472.836 71.2037 471.68 77.3046Z" fill="black"/>
</g>
<path d="M443.388 78.5061C437.994 70.6205 427.205 68.3107 417.922 66.0127C430.264 76.6397 443.015 90.078 452.543 103.271C454.703 96.8672 450.207 88.4682 443.388 78.5061Z" fill="#455A64"/>
<g opacity="0.2">
<path d="M443.388 78.5061C437.994 70.6205 427.205 68.3107 417.922 66.0127C430.264 76.6397 443.015 90.078 452.543 103.271C454.703 96.8672 450.207 88.4682 443.388 78.5061Z" fill="black"/>
</g>
<path d="M450.348 127.489C439.244 124.281 430.089 111.613 419.148 108.032C431.771 107.437 447.569 115.019 450.348 127.489Z" fill="#455A64"/>
<g opacity="0.2">
<path d="M450.348 127.489C439.244 124.281 430.089 111.613 419.148 108.032C431.771 107.437 447.569 115.019 450.348 127.489Z" fill="black"/>
</g>
<path d="M461.406 101.884C467.618 101.382 473.865 102.969 479.563 105.512C485.261 108.055 490.481 111.508 495.677 114.961C496.155 110.936 493.808 107.18 491.567 103.809C489.873 101.277 488.18 98.7227 486.044 96.5413C483.907 94.3715 481.28 92.5751 478.302 91.9102C474.717 91.0936 470.841 92.0035 467.782 94.0566C464.734 96.1097 462.749 98.466 461.406 101.884Z" fill="#455A64"/>
<path d="M451.188 142.758C451.188 142.758 456.699 105.138 462.806 84.3971C468.912 63.6563 474.832 40.0576 474.832 40.0576L477.238 40.7109C477.238 40.7109 464.347 81.6791 459.326 107.144C454.305 132.586 455.975 144.018 455.975 144.018L451.188 142.758Z" fill="#455A64"/>
<path d="M503.934 2.58966C503.945 2.60133 503.852 2.72965 503.677 2.97462C503.467 3.25458 503.21 3.60454 502.883 4.02449C502.182 4.93437 501.19 6.25254 499.975 7.909C497.547 11.2103 494.336 15.8763 491.136 21.254C487.949 26.6317 485.38 31.6827 483.628 35.3923C482.753 37.247 482.064 38.7518 481.608 39.8017C481.386 40.2916 481.2 40.6883 481.06 41.0032C480.931 41.2715 480.861 41.4115 480.838 41.4115C480.826 41.4115 480.873 41.2598 480.978 40.9682C481.106 40.6416 481.258 40.2333 481.457 39.7317C481.877 38.6585 482.519 37.1304 483.36 35.2639C485.041 31.5194 487.575 26.4334 490.774 21.044C493.985 15.6547 497.243 11.0003 499.73 7.74569C500.98 6.11256 502.007 4.80605 502.743 3.93116C503.093 3.52288 503.373 3.18459 503.595 2.92795C503.817 2.69465 503.922 2.578 503.934 2.58966Z" fill="#455A64"/>
<path d="M470.792 59.1428C463.611 51.1988 461.556 40.1985 464.545 29.9331C466.635 22.7473 471.189 16.5647 475.941 10.7788C476.35 10.2772 476.817 9.74057 477.459 9.62392C478.347 9.46061 479.152 10.1489 479.748 10.8254C484.932 16.7047 486.427 25.0337 486.053 32.8494C485.808 38.0521 484.804 43.2897 482.48 47.9558C480.168 52.6336 475.544 56.9847 470.792 59.1428Z" fill="#455A64"/>
<path d="M470.791 59.1422C470.78 59.1422 470.815 58.9906 470.908 58.6989C471.013 58.3723 471.142 57.964 471.305 57.4741C471.667 56.4126 472.157 54.8611 472.718 52.9363C473.85 49.0868 475.147 43.6975 476.139 37.6666C477.12 31.624 477.68 26.1063 478.077 22.1168C478.264 20.1571 478.416 18.5589 478.533 17.3807C478.591 16.8558 478.638 16.4359 478.673 16.0976C478.708 15.8059 478.731 15.6543 478.755 15.6543C478.766 15.6543 478.766 15.8059 478.766 16.1092C478.755 16.4475 478.731 16.8791 478.708 17.4041C478.649 18.5239 478.544 20.1454 478.381 22.1518C478.066 26.153 477.54 31.6823 476.559 37.7365C475.567 43.7908 474.224 49.1918 473.01 53.0296C472.403 54.9427 471.877 56.4826 471.468 57.5324C471.282 58.0224 471.118 58.419 471.001 58.7339C470.873 59.0139 470.815 59.1539 470.791 59.1422Z" fill="#263238"/>
<g opacity="0.2">
<path d="M461.406 101.884C467.618 101.382 473.865 102.969 479.563 105.512C485.261 108.055 490.481 111.508 495.677 114.961C496.155 110.936 493.808 107.18 491.567 103.809C489.873 101.277 488.18 98.7227 486.044 96.5413C483.907 94.3715 481.28 92.5751 478.302 91.9102C474.717 91.0936 470.841 92.0035 467.782 94.0566C464.734 96.1097 462.749 98.466 461.406 101.884Z" fill="black"/>
</g>
<path d="M488.638 132.516C488.626 132.528 488.521 132.446 488.323 132.271C488.101 132.061 487.821 131.805 487.482 131.501C486.77 130.825 485.742 129.833 484.423 128.667C483.781 128.072 483.057 127.43 482.274 126.753C481.504 126.065 480.651 125.365 479.741 124.642C477.919 123.207 475.876 121.667 473.529 120.384C471.193 119.089 468.741 118.285 466.429 118.261C465.273 118.226 464.176 118.215 463.148 118.343C462.132 118.46 461.198 118.681 460.358 118.938C458.688 119.451 457.427 120.128 456.598 120.641C455.769 121.154 455.337 121.492 455.313 121.469C455.302 121.457 455.407 121.364 455.605 121.201C455.804 121.026 456.107 120.793 456.516 120.513C457.333 119.953 458.583 119.218 460.276 118.669C461.117 118.39 462.074 118.156 463.113 118.016C464.152 117.865 465.273 117.876 466.441 117.9C468.811 117.9 471.369 118.728 473.727 120.034C476.109 121.329 478.164 122.892 479.986 124.35C480.897 125.085 481.737 125.797 482.508 126.497C483.29 127.185 484.002 127.838 484.633 128.445C485.917 129.646 486.922 130.673 487.599 131.385C487.914 131.711 488.171 131.979 488.381 132.213C488.556 132.411 488.638 132.516 488.638 132.516Z" fill="#455A64"/>
<path d="M443.525 119.709C443.537 119.685 443.77 119.825 444.167 120.105C444.564 120.373 445.125 120.817 445.767 121.388C447.063 122.532 448.698 124.328 450.064 126.603C451.43 128.889 452.248 131.164 452.645 132.855C452.843 133.695 452.972 134.383 453.018 134.873C453.077 135.352 453.088 135.62 453.065 135.62C452.995 135.632 452.831 134.57 452.364 132.925C451.897 131.28 451.045 129.052 449.714 126.813C448.371 124.573 446.806 122.777 445.569 121.598C444.343 120.408 443.479 119.767 443.525 119.709Z" fill="#455A64"/>
<path d="M428.899 74.7969C428.911 74.7852 429.063 74.8785 429.331 75.0652C429.646 75.2868 430.043 75.5551 430.546 75.9051C431.083 76.29 431.713 76.7333 432.449 77.2582C433.184 77.7832 433.955 78.4831 434.842 79.1947C438.357 82.0993 442.876 86.6137 446.846 92.3764C448.784 95.281 450.477 98.1506 451.808 100.869C453.128 103.587 454.19 106.106 454.961 108.253C455.743 110.399 456.304 112.161 456.677 113.385C456.853 113.957 457.004 114.424 457.121 114.785C457.215 115.112 457.261 115.275 457.25 115.287C457.238 115.287 457.168 115.135 457.039 114.82C456.911 114.505 456.736 114.039 456.526 113.444C456.094 112.242 455.498 110.492 454.681 108.369C453.875 106.235 452.789 103.75 451.458 101.055C450.115 98.3606 448.434 95.5026 446.496 92.6213C442.549 86.9054 438.1 82.3909 434.644 79.428C433.768 78.693 433.021 77.9931 432.297 77.4449C431.585 76.9083 430.966 76.4417 430.44 76.0451C429.962 75.6718 429.576 75.3801 429.273 75.1468C429.028 74.9252 428.887 74.8085 428.899 74.7969Z" fill="#455A64"/>
<path d="M479.83 100.169C479.818 100.192 479.514 100.064 478.977 99.8192C478.685 99.6792 478.358 99.5276 478.008 99.3526C477.634 99.1659 477.167 99.0376 476.677 98.851C474.715 98.1627 471.75 97.5328 468.609 98.2794C467.032 98.606 465.619 99.2359 464.417 99.9125C463.202 100.589 462.21 101.371 461.428 102.071C459.84 103.482 459.162 104.625 459.104 104.579C459.081 104.567 459.232 104.275 459.571 103.774C459.921 103.295 460.447 102.596 461.241 101.861C462.011 101.114 463.004 100.297 464.242 99.5859C465.468 98.8627 466.915 98.2094 468.527 97.8711C471.773 97.1012 474.82 97.8011 476.794 98.571C477.284 98.781 477.751 98.9326 478.125 99.1426C478.475 99.3409 478.79 99.5159 479.071 99.6792C479.573 99.9592 479.841 100.134 479.83 100.169Z" fill="#455A64"/>
<path d="M502.018 63.61C502.018 63.6216 501.855 63.6683 501.528 63.75C501.154 63.8316 500.687 63.9483 500.103 64.0883C498.866 64.3799 497.079 64.8115 494.884 65.4181C492.701 66.0363 490.097 66.8179 487.283 67.8678C484.469 68.9177 481.409 70.2008 478.432 71.9506C476.961 72.8372 475.56 73.8054 474.45 74.9602C473.341 76.1618 472.278 77.3283 471.274 78.4598C469.278 80.7112 467.573 82.8109 466.265 84.6657C464.946 86.5205 464.011 88.0953 463.404 89.2151C462.797 90.335 462.505 90.9766 462.47 90.9532C462.459 90.9532 462.517 90.7783 462.645 90.475C462.774 90.16 462.972 89.7051 463.253 89.1451C463.813 88.0019 464.724 86.3805 466.008 84.5024C467.304 82.6243 468.986 80.4779 470.971 78.2148C471.963 77.0833 473.026 75.9051 474.135 74.7036C475.291 73.4904 476.715 72.5105 478.21 71.6123C481.223 69.8392 484.305 68.5677 487.143 67.5295C489.98 66.503 492.596 65.7447 494.802 65.1615C497.009 64.6015 498.819 64.2049 500.068 63.9599C500.664 63.855 501.143 63.7616 501.516 63.7033C501.843 63.61 502.018 63.5866 502.018 63.61Z" fill="#455A64"/>
<path d="M461.077 96.0978C461.054 96.0978 461.042 95.7362 461.042 95.0946C461.054 94.3714 461.065 93.4615 461.077 92.3766C461.089 90.0903 461.042 86.9173 460.657 83.4528C460.271 79.9882 459.582 76.8969 459.069 74.6572C458.823 73.6073 458.613 72.7208 458.45 72.0092C458.31 71.3793 458.24 71.0293 458.275 71.0293C458.31 71.0293 458.415 71.3559 458.613 71.9742C458.8 72.5924 459.057 73.479 459.36 74.5872C459.944 76.8036 460.692 79.9065 461.077 83.4061C461.474 86.894 461.474 90.0903 461.38 92.3766C461.334 93.5198 461.275 94.453 461.217 95.0946C461.147 95.7479 461.1 96.0978 461.077 96.0978Z" fill="#455A64"/>
<path d="M465.458 70.1889C466.042 65.8611 465.482 61.4166 464.244 57.2288C460.846 45.7386 452.077 35.9515 441.008 31.332C446.904 45.6103 452.813 59.8768 458.709 74.155L460.624 81.5508C463.59 78.3429 464.875 74.5167 465.458 70.1889Z" fill="#455A64"/>
<g opacity="0.2">
<path d="M465.458 70.1889C466.042 65.8611 465.482 61.4166 464.244 57.2288C460.846 45.7386 452.077 35.9515 441.008 31.332C446.904 45.6103 452.813 59.8768 458.709 74.155L460.624 81.5508C463.59 78.3429 464.875 74.5167 465.458 70.1889Z" fill="black"/>
</g>
<path d="M245.134 476.893C258.386 463.691 252.451 436.281 231.879 415.67C211.306 395.059 183.886 389.053 170.635 402.254C157.383 415.455 163.318 442.866 183.89 463.477C204.463 484.087 231.883 490.094 245.134 476.893Z" fill="#263238"/>
<path d="M191.318 456.344C172.542 437.586 165.91 413.148 174.889 398.939C173.336 399.873 171.9 400.993 170.592 402.287C157.374 415.527 163.364 442.952 183.962 463.53C204.559 484.119 231.964 490.068 245.181 476.828C246.349 475.65 247.365 474.367 248.241 472.99C233.995 481.564 209.895 474.903 191.318 456.344Z" fill="#455A64"/>
<path d="M212.328 431.054L228.967 413.357L230.952 415.329C230.952 415.329 216.882 431.66 216.648 435.556L212.328 431.054Z" fill="#455A64"/>
<path d="M185.21 420.858L162.43 454.839L196.945 489.333L231.251 463.18L185.21 420.858Z" fill="#AA00CC"/>
<path d="M197.169 489.135C194.052 492.191 183.881 486.872 174.447 477.26C165.012 467.648 159.898 457.382 163.016 454.326C166.133 451.27 176.303 456.589 185.738 466.201C195.173 475.813 200.299 486.09 197.169 489.135Z" fill="#AA00CC"/>
<g opacity="0.3">
<path d="M197.169 489.135C194.052 492.191 183.881 486.872 174.447 477.26C165.012 467.648 159.898 457.382 163.016 454.326C166.133 451.27 176.303 456.589 185.738 466.201C195.173 475.813 200.299 486.09 197.169 489.135Z" fill="black"/>
</g>
<path d="M232.284 465.781C229.435 468.371 215.014 466.166 199.274 451.701C183.534 437.236 174.614 426.352 182.647 417.872C189.244 410.908 202.415 416.204 218.155 430.669C233.895 445.133 241.648 457.277 232.284 465.781Z" fill="#AA00CC"/>
<path d="M196.95 489.333C196.938 489.322 197.125 489.158 197.499 488.843C197.907 488.517 198.456 488.073 199.157 487.502C200.651 486.312 202.776 484.62 205.462 482.486C210.938 478.181 218.68 472.104 227.881 464.883L227.846 464.918C228.558 464.125 228.558 462.865 228.336 461.722C228.114 460.555 227.671 459.4 227.145 458.28C226.083 456.029 224.693 453.836 223.129 451.701C219.999 447.432 216.216 443.326 212.048 439.418C207.505 435.172 202.73 431.415 197.849 428.417C195.409 426.936 192.933 425.618 190.423 424.685C189.173 424.23 187.901 423.845 186.64 423.693C185.402 423.541 184.047 423.623 183.253 424.428L183.277 424.393C177.077 433.492 171.892 441.109 168.226 446.487C166.404 449.123 164.968 451.211 163.964 452.669C163.485 453.358 163.1 453.894 162.82 454.291C162.563 454.653 162.411 454.839 162.399 454.828C162.388 454.816 162.504 454.618 162.75 454.244C163.018 453.836 163.368 453.288 163.824 452.576C164.805 451.095 166.206 448.983 167.969 446.312C171.589 440.911 176.715 433.247 182.833 424.101L182.845 424.09L182.856 424.078C183.347 423.553 184.024 423.285 184.678 423.168C185.344 423.051 186.021 423.063 186.686 423.145C188.017 423.296 189.314 423.693 190.61 424.148C193.178 425.093 195.677 426.411 198.141 427.904C203.068 430.914 207.867 434.693 212.445 438.963C216.636 442.894 220.443 447.012 223.596 451.34C225.16 453.498 226.573 455.714 227.647 458.024C228.185 459.179 228.628 460.368 228.862 461.605C229.084 462.807 229.13 464.23 228.22 465.268L228.208 465.28L228.185 465.291C218.937 472.442 211.149 478.461 205.637 482.719C202.905 484.807 200.745 486.452 199.239 487.607C198.515 488.143 197.954 488.575 197.534 488.878C197.172 489.205 196.962 489.345 196.95 489.333Z" fill="#263238"/>
<path d="M301.535 337.814H238.797V307.111L298.557 161.902H334.416V307.111H349.957V337.814H334.416V376.799H301.546V337.814H301.535ZM301.535 307.123V223.308H300.939L268.677 307.123H301.535Z" fill="#00B4F2"/>
<g opacity="0.3">
<path d="M301.535 337.814H238.797V307.111L298.557 161.902H334.416V307.111H349.957V337.814H334.416V376.799H301.546V337.814H301.535ZM301.535 307.123V223.308H300.939L268.677 307.123H301.535Z" fill="black"/>
</g>
<path d="M286.574 337.814H223.836V307.111L283.596 161.902H319.455V307.111H334.996V337.814H319.455V376.799H286.585V337.814H286.574ZM286.574 307.123V223.308H285.978L253.716 307.123H286.574Z" fill="#00B4F2"/>
<path d="M376.203 365.752C367.633 356.338 363.359 343.039 363.359 325.845V212.867C363.359 195.673 367.645 182.374 376.203 172.961C384.762 163.547 397.116 158.834 413.253 158.834C429.39 158.834 441.732 163.547 450.302 172.961C458.861 182.374 463.147 195.673 463.147 212.867V325.845C463.147 343.039 458.861 356.338 450.302 365.752C441.732 375.165 429.39 379.878 413.253 379.878C397.116 379.878 384.762 375.165 376.203 365.752ZM430.277 327.991V210.721C430.277 196.594 424.603 189.537 413.253 189.537C401.903 189.537 396.229 196.594 396.229 210.721V327.991C396.229 342.118 401.903 349.175 413.253 349.175C424.603 349.175 430.277 342.118 430.277 327.991Z" fill="#00B4F2"/>
<g opacity="0.3">
<path d="M450.302 172.961C441.732 163.547 429.39 158.834 413.253 158.834C397.116 158.834 384.762 163.547 376.203 172.961C367.633 182.374 363.359 195.673 363.359 212.867V325.845C363.359 343.039 367.645 356.338 376.203 365.752C384.762 375.165 397.116 379.878 413.253 379.878C429.39 379.878 441.732 375.177 450.302 365.752C458.861 356.338 463.147 343.039 463.147 325.845V212.867C463.147 195.684 458.861 182.374 450.302 172.961ZM430.277 327.991C430.277 342.118 424.603 349.175 413.253 349.175C401.903 349.175 396.229 340.31 396.229 327.991V210.721C396.229 197.912 401.903 189.537 413.253 189.537C424.603 189.537 430.277 196.594 430.277 210.721V327.991Z" fill="black"/>
</g>
<path d="M361.243 365.752C352.672 356.338 348.398 343.039 348.398 325.845V212.867C348.398 195.673 352.684 182.374 361.243 172.961C369.801 163.547 382.155 158.834 398.292 158.834C414.429 158.834 426.771 163.547 435.341 172.961C443.9 182.374 448.186 195.673 448.186 212.867V325.845C448.186 343.039 443.9 356.338 435.341 365.752C426.771 375.165 414.429 379.878 398.292 379.878C382.155 379.878 369.801 375.165 361.243 365.752ZM415.316 327.991V210.721C415.316 196.594 409.642 189.537 398.292 189.537C386.942 189.537 381.268 196.594 381.268 210.721V327.991C381.268 342.118 386.942 349.175 398.292 349.175C409.642 349.175 415.316 342.118 415.316 327.991Z" fill="#00B4F2"/>
<path d="M536.538 337.814H473.789V307.111L533.549 161.902H569.408V307.111H584.949V337.814H569.408V376.799H536.538V337.814ZM536.538 307.123V223.308H535.943L503.669 307.123H536.538Z" fill="#00B4F2"/>
<g opacity="0.3">
<path d="M536.538 337.814H473.789V307.111L533.549 161.902H569.408V307.111H584.949V337.814H569.408V376.799H536.538V337.814ZM536.538 307.123V223.308H535.943L503.669 307.123H536.538Z" fill="black"/>
</g>
<path d="M521.578 337.814H458.828V307.111L518.588 161.902H554.447V307.111H569.988V337.814H554.447V376.799H521.578V337.814ZM521.578 307.123V223.308H520.982L488.708 307.123H521.578Z" fill="#00B4F2"/>
<path d="M641.028 342.408C656.445 339.3 661.04 297.658 651.293 249.399C641.545 201.141 621.145 164.539 605.728 167.647C590.311 170.755 585.715 212.396 595.463 260.655C605.21 308.914 625.611 345.516 641.028 342.408Z" fill="#263238"/>
<path d="M642.889 251.351C634.004 207.362 616.279 173.066 601.531 169.695C602.839 168.668 604.24 167.992 605.758 167.689C621.171 164.586 641.57 201.179 651.32 249.45C661.07 297.709 656.469 339.354 641.056 342.457C639.69 342.737 638.289 342.69 636.853 342.363C648.798 332.985 651.67 294.863 642.889 251.351Z" fill="#455A64"/>
<path d="M796.957 168.166L813.479 144.077C813.479 144.077 843.534 152.756 847.014 148.603L801.417 114.926L774.141 151.391L796.957 168.166Z" fill="#263238"/>
<path d="M797.917 135.643C797.216 134.745 797.333 133.31 798.197 132.575C799.061 131.84 800.533 131.945 801.245 132.832C801.969 133.707 801.864 135.445 800.93 136.086C799.984 136.728 798.267 136.495 797.789 135.468" fill="#E0E0E0"/>
<path d="M801.416 114.938L798.812 118.717L843.498 149.583C843.498 149.583 846.184 150.201 847.013 148.603L801.416 114.938Z" fill="#455A64"/>
<path d="M814.037 144.859C814.189 144.626 813.161 143.704 812.589 142.188C811.982 140.683 812.134 139.295 811.865 139.236C811.632 139.131 810.978 140.706 811.69 142.538C812.391 144.369 813.932 145.104 814.037 144.859Z" fill="white"/>
<path d="M820.283 146.422C820.493 146.247 819.804 145.151 819.746 143.658C819.641 142.165 820.201 140.998 819.979 140.846C819.792 140.66 818.683 141.85 818.788 143.704C818.87 145.571 820.119 146.621 820.283 146.422Z" fill="white"/>
<path d="M827.234 142.7C827.071 142.502 825.938 143.389 825.6 145.022C825.261 146.655 825.95 147.915 826.184 147.798C826.44 147.705 826.254 146.561 826.546 145.208C826.802 143.878 827.433 142.887 827.234 142.7Z" fill="white"/>
<path d="M809.661 149.933C809.72 149.664 808.47 149.21 807.279 148.195C806.065 147.203 805.399 146.06 805.142 146.165C804.897 146.235 805.248 147.763 806.66 148.941C808.073 150.119 809.649 150.189 809.661 149.933Z" fill="white"/>
<path d="M781.109 266.061L797.771 242.077C797.771 242.077 827.768 250.942 831.283 246.801L785.885 212.867L758.398 249.181L781.109 266.061Z" fill="#263238"/>
<path d="M782.263 233.538C781.562 232.639 781.691 231.205 782.566 230.47C783.431 229.735 784.902 229.851 785.614 230.738C786.326 231.625 786.221 233.351 785.275 233.993C784.33 234.623 782.613 234.389 782.134 233.363" fill="#E0E0E0"/>
<path d="M785.885 212.855L783.258 216.623L827.757 247.758C827.757 247.758 830.431 248.388 831.271 246.801L785.885 212.855Z" fill="#455A64"/>
<path d="M798.335 242.858C798.499 242.636 797.459 241.703 796.899 240.175C796.303 238.659 796.455 237.282 796.187 237.212C795.953 237.107 795.287 238.67 796 240.513C796.689 242.356 798.23 243.091 798.335 242.858Z" fill="white"/>
<path d="M804.564 244.445C804.774 244.27 804.097 243.173 804.05 241.669C803.957 240.175 804.529 239.021 804.296 238.857C804.109 238.671 802.988 239.849 803.093 241.715C803.163 243.582 804.401 244.655 804.564 244.445Z" fill="white"/>
<path d="M811.541 240.77C811.377 240.572 810.233 241.447 809.894 243.091C809.544 244.724 810.233 245.984 810.466 245.868C810.723 245.774 810.548 244.631 810.84 243.29C811.109 241.948 811.739 240.957 811.541 240.77Z" fill="white"/>
<path d="M793.932 247.898C793.99 247.629 792.741 247.174 791.55 246.148C790.336 245.145 789.682 244.001 789.425 244.106C789.18 244.176 789.518 245.704 790.931 246.883C792.344 248.084 793.909 248.154 793.932 247.898Z" fill="white"/>
<path d="M609.15 283.442C610.703 283.442 749.163 243.593 758.784 234.938C768.417 226.282 807.744 157.737 807.744 157.737L779.814 134.979L731.263 198.181L646.001 205.868C646.001 205.868 610.061 203.418 603.791 216.262L603.195 235.486L609.15 283.442Z" fill="#263238"/>
<path d="M609.148 283.442C611.203 283.5 673.042 352.255 692.425 356.163C711.796 360.07 721.546 346.725 728.167 338.723C736.597 328.528 793.999 255.352 793.999 255.352L765.205 231.555L702.07 298.665L664.11 246.439L631.018 243.337L610.9 261.138L609.148 283.442Z" fill="#263238"/>
<path d="M696.454 305.081C696.443 305.069 696.524 304.976 696.676 304.801C696.851 304.591 697.085 304.334 697.365 304.007C698.007 303.284 698.906 302.281 700.051 301.01C702.433 298.397 705.83 294.664 710.011 290.068C714.237 285.46 719.27 279.977 724.84 273.9C727.642 270.867 730.585 267.682 733.62 264.381C736.715 261.126 739.914 257.743 743.183 254.29C751.088 245.973 758.55 238.134 765.007 231.345L765.194 231.158L765.392 231.322C773.916 238.426 781.085 244.398 786.153 248.633C788.628 250.721 790.602 252.377 791.979 253.544C792.622 254.092 793.124 254.535 793.509 254.862C793.848 255.165 794.023 255.329 794.011 255.34C794 255.352 793.813 255.212 793.451 254.932C793.065 254.629 792.54 254.209 791.874 253.684C790.473 252.541 788.465 250.931 785.943 248.889C780.84 244.702 773.624 238.799 765.03 231.765L765.415 231.741C758.982 238.542 751.544 246.393 743.651 254.734C740.369 258.186 737.17 261.558 734.076 264.812C731.017 268.102 728.074 271.275 725.26 274.308C719.644 280.35 714.588 285.798 710.338 290.382C706.099 294.92 702.654 298.595 700.237 301.184C699.058 302.421 698.136 303.401 697.47 304.101C697.166 304.404 696.933 304.649 696.734 304.847C696.548 305.011 696.454 305.092 696.454 305.081Z" fill="#455A64"/>
<path d="M695.662 257.871C695.673 257.906 695.031 258.139 693.863 258.513C692.591 258.909 690.933 259.434 688.913 260.064C684.732 261.359 678.941 263.097 672.589 265.15C671.001 265.675 669.459 266.2 667.965 266.702C666.47 267.192 665.034 267.658 663.75 268.265C661.169 269.466 659.429 271.519 658.53 273.456C657.62 275.404 657.293 277.165 657.047 278.355C656.826 279.557 656.72 280.222 656.674 280.222C656.65 280.222 656.65 280.047 656.674 279.732C656.685 279.405 656.732 278.939 656.814 278.32C656.989 277.107 657.246 275.322 658.133 273.281C659.009 271.251 660.807 269.046 663.493 267.763C664.824 267.11 666.272 266.632 667.766 266.142C669.261 265.64 670.802 265.115 672.39 264.579C678.754 262.514 684.569 260.846 688.772 259.656C690.886 259.061 692.591 258.606 693.782 258.291C694.984 257.988 695.65 257.836 695.662 257.871Z" fill="#455A64"/>
<path d="M590.503 224.276C590.48 224.264 590.585 224.077 590.783 223.727C590.9 223.529 591.029 223.319 591.169 223.074C591.356 222.829 591.566 222.549 591.788 222.246C592.745 221.021 594.356 219.423 596.645 217.848C601.187 214.64 608.31 211.596 616.437 209.344C624.575 207.105 632.165 205.985 637.688 205.623C640.444 205.436 642.685 205.448 644.238 205.541C645.009 205.588 645.605 205.646 646.013 205.705C646.422 205.763 646.632 205.798 646.62 205.821C646.609 205.88 645.768 205.798 644.227 205.786C642.685 205.775 640.467 205.821 637.723 206.066C632.247 206.533 624.704 207.711 616.6 209.939C608.52 212.167 601.432 215.13 596.89 218.21C594.602 219.726 592.979 221.243 591.974 222.409C591.741 222.689 591.519 222.958 591.321 223.191C591.157 223.413 591.017 223.623 590.889 223.797C590.655 224.124 590.527 224.287 590.503 224.276Z" fill="#455A64"/>
<path d="M647.827 321.785C647.815 321.797 647.652 321.692 647.348 321.47C646.998 321.202 646.566 320.864 646.04 320.455C644.837 319.51 643.226 318.239 641.264 316.699C637.236 313.526 631.503 309.373 625.139 304.812C618.764 300.24 613.264 295.737 609.469 292.284C607.578 290.557 606.06 289.134 605.044 288.119C604.577 287.653 604.192 287.268 603.876 286.953C603.608 286.685 603.479 286.533 603.503 286.51C603.514 286.498 603.678 286.615 603.97 286.86C604.308 287.151 604.717 287.513 605.219 287.944C606.282 288.901 607.846 290.277 609.773 291.957C613.638 295.328 619.161 299.761 625.525 304.322C631.888 308.883 637.598 313.106 641.568 316.373C643.553 317.994 645.153 319.324 646.227 320.28C646.717 320.724 647.126 321.085 647.465 321.377C647.698 321.622 647.838 321.762 647.827 321.785Z" fill="#455A64"/>
<path d="M219.962 273.434C238.14 224.925 240.314 180.902 224.817 175.106C209.32 169.31 182.021 203.936 163.844 252.445C145.666 300.953 143.492 344.976 158.989 350.772C174.486 356.568 201.784 321.942 219.962 273.434Z" fill="#263238"/>
<path d="M172.283 255.819C188.852 211.608 212.999 178.922 228.879 177.872C227.699 176.589 226.345 175.644 224.815 175.084C209.32 169.286 182.021 203.92 163.841 252.424C145.66 300.94 143.489 344.964 158.995 350.762C160.373 351.275 161.832 351.462 163.374 351.369C152.514 339.645 155.889 299.563 172.283 255.819Z" fill="#455A64"/>
<path d="M10.0413 146.632C10.0413 146.632 5.9078 136.098 4.1213 132.284C2.33479 128.469 2.72012 116.827 3.91112 114.716C5.10212 112.605 4.00453 110.995 4.00453 110.995C4.00453 110.995 -2.09059 99.6446 0.75847 96.8449L2.41653 96.6583C2.41653 96.6583 8.52333 108.837 8.72183 109.082C8.932 109.327 10.2631 109.385 10.6835 107.262C11.1038 105.139 10.0763 98.8397 10.0763 98.8397C10.0763 98.8397 7.76436 94.8268 7.60089 92.0738C7.5425 91.0356 8.46494 89.5775 9.29397 88.9476L10.123 88.3176C10.123 88.3176 15.249 97.5798 15.5292 99.8429C15.8094 102.106 16.7552 107.017 16.7552 107.017L17.4675 106.445L17.5259 95.0835C17.5259 95.0835 14.9571 85.4713 16.907 83.3716C18.857 81.2718 19.0438 83.0333 19.0438 83.0333C19.0438 83.0333 22.6986 92.8437 22.9788 95.3401C23.0956 96.355 23.2007 106.107 23.2007 106.107L24.777 105.454L25.3258 96.3316C25.3258 96.3316 23.4809 87.2794 26.2482 86.3579L28.4667 86.2879C28.4667 86.2879 30.5685 98.1981 30.802 98.758C31.0356 99.3179 29.1907 112.908 29.1907 112.908L29.7512 114.191L31.3508 112.021C31.3508 112.021 32.0631 109.933 35.2508 108.195C38.4268 106.445 39.828 107.717 39.828 107.717L35.8346 114.809C35.8346 114.809 32.2032 123.103 30.7086 125.005C29.214 126.906 24.1465 131.397 23.3408 131.829C22.5351 132.272 23.4342 135.947 23.4342 135.947L24.6952 138.513L10.0413 146.632Z" fill="#FFBF9D"/>
<path d="M26.0302 118.868C26.0302 118.985 24.7458 118.962 22.7608 119.44C20.7992 119.907 18.1253 121.003 15.86 123.091C13.5948 125.191 12.287 127.757 11.6682 129.67C11.0376 131.607 10.9676 132.89 10.8391 132.878C10.7691 132.878 10.664 131.572 11.2011 129.53C11.7149 127.512 13.011 124.783 15.393 122.578C18.6741 119.965 21.348 118.962 22.6557 118.962C24.7341 118.588 26.0419 118.798 26.0302 118.868Z" fill="#FF9A6C"/>
<path d="M26.5737 105.851C26.5737 106.084 21.7747 105.302 16.135 106.784C10.4719 108.195 6.64198 111.182 6.52521 110.983C6.47851 110.925 7.35424 110.097 9.00063 109.07C10.6353 108.044 13.0874 106.866 15.9598 106.119C18.8439 105.384 21.5528 105.244 23.4795 105.361C25.4178 105.477 26.5854 105.769 26.5737 105.851Z" fill="#FF9A6C"/>
<path d="M10.0391 146.632C10.4361 147.589 30.543 208.388 39.2303 214.921C47.9292 221.453 105.342 238.309 105.342 238.309L114.368 207.746L58.2045 190.144L23.3386 131.853L10.0391 146.632Z" fill="#FFBF9D"/>
<path d="M118.083 199.347L74.7164 191.951L65.4453 229.63L115.619 241.097L118.083 199.347Z" fill="#AA00CC"/>
<path d="M145.329 202.346L142.784 135.877C142.691 119.324 132.964 105.583 116.407 106.131L114.877 106.271C99.5109 107.683 87.7877 120.643 87.9629 136.064C88.1263 150.412 88.4883 166.265 89.2823 173.894C90.9287 189.689 106.996 190.704 106.996 190.704C107.031 190.704 111.911 210.371 111.911 210.371L117.516 212.226L145.329 202.346Z" fill="#FFBF9D"/>
<path d="M106.992 190.704C106.992 190.704 117.022 190.377 127.041 182.725C127.041 182.725 124.122 195.451 108.195 195.486L106.992 190.704Z" fill="#FF9A6C"/>
<path d="M95.9489 148.943C96.019 150.144 97.0815 151.066 98.3426 151.019C99.592 150.972 100.549 149.969 100.491 148.768C100.421 147.566 99.3585 146.644 98.1091 146.691C96.8363 146.738 95.8789 147.741 95.9489 148.943Z" fill="#263238"/>
<path d="M91.9687 142.749C92.2723 143.017 93.872 141.594 96.3007 141.372C98.7294 141.115 100.633 142.212 100.866 141.885C100.983 141.745 100.644 141.232 99.8153 140.742C98.9979 140.252 97.6435 139.821 96.1255 139.972C94.6076 140.124 93.3815 140.789 92.7043 141.43C92.0271 142.072 91.8169 142.632 91.9687 142.749Z" fill="#263238"/>
<path d="M115.18 148.511C115.483 148.78 117.083 147.356 119.523 147.135C121.952 146.878 123.855 147.975 124.089 147.648C124.205 147.508 123.879 146.995 123.038 146.505C122.22 146.015 120.866 145.583 119.348 145.735C117.83 145.887 116.604 146.563 115.927 147.193C115.238 147.835 115.028 148.383 115.18 148.511Z" fill="#263238"/>
<path d="M108.862 160.596C108.862 160.456 107.321 160.339 104.845 160.246C104.215 160.234 103.619 160.164 103.479 159.756C103.292 159.324 103.491 158.624 103.724 157.878C104.168 156.326 104.635 154.693 105.126 152.978C107.052 146.014 108.395 140.31 108.115 140.24C107.834 140.17 106.036 145.746 104.11 152.71C103.643 154.425 103.211 156.058 102.79 157.621C102.615 158.344 102.288 159.184 102.697 160.082C102.907 160.526 103.397 160.829 103.806 160.899C104.215 160.981 104.565 160.957 104.88 160.946C107.332 160.876 108.862 160.736 108.862 160.596Z" fill="#263238"/>
<path d="M113.15 142.107C113.535 142.702 115.835 141.827 118.708 141.5C121.568 141.115 124.009 141.395 124.242 140.73C124.336 140.415 123.81 139.902 122.748 139.494C121.697 139.085 120.121 138.829 118.404 139.039C116.688 139.249 115.216 139.879 114.294 140.532C113.372 141.197 112.975 141.827 113.15 142.107Z" fill="#263238"/>
<path d="M91.3974 136.577C91.9462 137.091 93.8845 136.367 96.2665 136.157C98.6368 135.877 100.704 136.192 101.124 135.574C101.311 135.282 100.949 134.746 100.026 134.291C99.1155 133.836 97.6326 133.521 95.9979 133.684C94.3632 133.859 92.9854 134.466 92.1914 135.096C91.3857 135.737 91.1522 136.332 91.3974 136.577Z" fill="#263238"/>
<path d="M142.562 147.717C142.819 147.577 153.141 143.506 153.795 154.343C154.449 165.192 143.415 163.605 143.38 163.29C143.345 162.987 142.562 147.717 142.562 147.717Z" fill="#FFBF9D"/>
<path d="M146.453 158.986C146.5 158.951 146.652 159.103 146.979 159.231C147.294 159.359 147.843 159.418 148.392 159.173C149.513 158.683 150.365 156.805 150.307 154.845C150.272 153.853 150.015 152.932 149.618 152.174C149.244 151.404 148.695 150.879 148.111 150.809C147.528 150.715 147.142 151.077 147.026 151.392C146.897 151.707 146.979 151.917 146.92 151.94C146.897 151.964 146.675 151.777 146.734 151.322C146.769 151.1 146.874 150.844 147.119 150.622C147.364 150.4 147.738 150.26 148.146 150.284C148.987 150.295 149.781 151.019 150.225 151.847C150.704 152.675 151.031 153.725 151.066 154.833C151.124 157.026 150.131 159.138 148.59 159.686C147.843 159.931 147.189 159.744 146.839 159.499C146.488 159.243 146.418 159.009 146.453 158.986Z" fill="#FF9A6C"/>
<path d="M116.608 161.727C116.234 161.727 116.339 164.212 114.284 166.078C112.229 167.956 109.567 167.793 109.555 168.143C109.532 168.306 110.174 168.598 111.295 168.575C112.393 168.563 113.992 168.131 115.242 166.988C116.491 165.845 116.993 164.375 117.028 163.349C117.075 162.31 116.771 161.704 116.608 161.727Z" fill="#263238"/>
<path d="M65.3192 122.905C65.4476 122.252 65.8797 121.704 66.4285 121.331C67.6311 120.526 69.0674 120.526 70.4452 120.421C73.8897 120.152 77.2526 119.056 80.2184 117.318C79.1091 116.839 78.0699 116.245 77.1708 115.451C75.3026 113.807 74.1349 111.194 74.7888 108.802C74.9173 108.359 75.1391 107.881 75.5711 107.717C76.2601 107.461 76.9256 108.114 77.4511 108.627C79.1792 110.33 80.7205 111.019 83.1142 110.622C84.5971 110.377 86.0333 109.957 87.1659 109.152C87.2126 109.105 87.2476 109.047 87.2943 108.989C87.8198 108.371 88.3335 107.787 88.8473 107.216C92.6772 102.911 96.0167 99.9016 99.543 98.2218C104.716 95.7604 113.52 94.3489 119.136 95.4571C124.752 96.5653 129.995 100.741 131.104 106.341C134.035 103.529 138.694 103.261 142.559 104.544L142.653 104.498C146.949 105.734 149.612 110.027 151.118 114.226C151.2 114.46 151.27 114.693 151.351 114.926C152.916 117.084 154.96 118.893 157.353 120.094C157.774 120.304 158.252 120.561 158.334 121.027C158.416 121.482 158.042 121.891 157.68 122.194C156.723 122.975 155.578 123.524 154.364 123.815C154.808 124.807 155.321 125.775 155.94 126.685C156.466 127.455 157.085 128.388 156.723 129.251C156.442 129.916 155.637 130.231 154.913 130.173C154.189 130.114 153.535 129.753 152.904 129.415C153.442 130.511 153.979 131.596 154.516 132.692C153.01 133.054 151.433 133.031 149.927 132.669C149.285 136.729 149.075 144.183 148.211 146.959C145.338 147.192 144.614 146.912 143.19 147.484C141.345 148.219 142.267 151.508 139.768 150.715C138.496 150.307 136.289 145.711 135.798 144.474C132.517 136.239 131.034 127.28 131.49 118.426C129.633 116.676 127.438 115.3 125.068 114.366L125.266 114.53C120.736 113.27 115.621 112.057 111.535 114.401C108.37 116.221 106.654 119.721 104.389 122.579C100.08 127.991 95.0125 131.048 88.1234 131.771C87.7964 136.6 88.1 144.439 88.135 148.919L83.768 140.217V140.252C83.4294 139.75 83.1375 139.237 82.8573 138.723L82.7639 138.572V138.548C82.3201 137.72 81.8998 136.892 81.351 136.087C81.3393 136.099 81.3277 136.11 81.316 136.134C79.0274 138.42 75.2559 135.375 77.0074 132.658C77.3576 132.121 77.778 131.631 78.2684 131.223C77.2292 132.331 75.6062 132.926 74.1233 132.576C72.6404 132.214 71.426 130.826 71.461 129.298C71.4844 128.26 72.1616 127.292 73.0724 126.825C71.1224 127.093 69.1024 126.79 67.3276 125.927C66.1833 125.308 65.0273 124.329 65.3192 122.905Z" fill="#263238"/>
<path d="M126.243 108.464C126.208 108.511 126.932 108.837 127.925 109.817C128.906 110.797 130.05 112.523 130.692 114.938C131.019 116.14 131.253 117.481 131.346 118.951C131.439 120.409 131.428 121.984 131.416 123.64C131.416 125.297 131.404 127.047 131.615 128.855C131.72 129.753 131.895 130.674 132.14 131.573C132.397 132.459 132.689 133.427 133.424 134.162C134.008 134.757 134.931 134.991 135.713 134.781C136.495 134.594 137.173 134.127 137.663 133.521C138.609 132.261 138.772 130.744 138.947 129.391L138.62 129.45C139.239 130.616 139.87 131.759 140.757 132.658C141.633 133.556 142.801 134.116 143.957 134.151C144.529 134.162 145.101 134.034 145.58 133.766C146.07 133.486 146.409 133.054 146.631 132.599C146.841 132.144 146.934 131.643 146.876 131.176C146.817 130.709 146.607 130.266 146.292 129.975L146.128 130.138C147.436 131.456 148.779 132.121 149.701 132.483C150.169 132.658 150.53 132.763 150.787 132.833C151.033 132.891 151.173 132.914 151.173 132.902C151.173 132.891 151.044 132.844 150.811 132.774C150.566 132.693 150.204 132.576 149.76 132.378C148.861 131.993 147.565 131.293 146.304 129.986L146.14 130.149C146.712 130.686 146.806 131.678 146.397 132.506C146.187 132.914 145.883 133.299 145.451 133.532C145.031 133.777 144.505 133.882 143.98 133.871C142.917 133.836 141.831 133.311 141.014 132.448C140.173 131.596 139.566 130.476 138.947 129.31L138.691 128.82L138.62 129.38C138.445 130.721 138.27 132.191 137.406 133.322C136.974 133.871 136.355 134.291 135.666 134.454C134.977 134.629 134.23 134.442 133.716 133.929C133.074 133.299 132.771 132.378 132.525 131.503C132.28 130.616 132.117 129.718 132 128.831C131.778 127.058 131.778 125.32 131.778 123.664C131.778 122.007 131.79 120.432 131.673 118.951C131.568 117.469 131.311 116.105 130.961 114.891C130.283 112.453 129.081 110.704 128.042 109.735C126.979 108.744 126.243 108.464 126.243 108.464Z" fill="#455A64"/>
<path d="M78.0547 126.941C78.0547 126.941 78.1014 126.976 78.1831 127.046C78.2999 127.116 78.4283 127.21 78.6035 127.315C78.7903 127.431 79.0122 127.571 79.3041 127.7C79.5843 127.84 79.9112 128.015 80.2966 128.143C81.8145 128.749 84.2199 129.298 87.174 128.948C90.0931 128.598 93.5494 127.35 96.5386 124.818C99.5744 122.345 102.143 118.811 104.187 114.821C105.226 112.826 106.043 110.797 106.966 108.919C107.888 107.029 108.916 105.279 110.212 103.868C111.496 102.444 113.014 101.36 114.614 100.811C115.408 100.52 116.225 100.415 117.007 100.38C117.79 100.368 118.549 100.485 119.249 100.671C120.65 101.045 121.795 101.733 122.682 102.456C123.57 103.191 124.188 103.984 124.62 104.672C125.438 106.084 125.531 107.017 125.59 107.005C125.601 107.005 125.59 106.947 125.566 106.842C125.543 106.714 125.508 106.551 125.461 106.364C125.356 105.944 125.134 105.337 124.749 104.614C124.329 103.903 123.721 103.074 122.822 102.316C121.923 101.558 120.756 100.835 119.319 100.438C118.607 100.24 117.825 100.123 117.007 100.111C116.202 100.135 115.338 100.24 114.509 100.531C112.839 101.091 111.263 102.199 109.955 103.646C108.624 105.092 107.561 106.865 106.627 108.767C105.693 110.668 104.864 112.686 103.836 114.658C101.816 118.612 99.2709 122.1 96.305 124.562C93.3626 127.07 89.9997 128.318 87.1273 128.691C84.2315 129.076 81.8495 128.574 80.3316 128.015C78.8253 127.431 78.078 126.895 78.0547 126.941Z" fill="#455A64"/>
<path d="M76.1801 120.059C76.1685 120.082 76.3787 120.211 76.7757 120.421C77.161 120.642 77.7565 120.899 78.5154 121.167C79.2627 121.447 80.1969 121.692 81.2361 121.879C82.2869 122.054 83.4546 122.147 84.6806 122.124C85.9067 122.077 87.0626 121.914 88.1018 121.68C89.1294 121.435 90.0401 121.132 90.7757 120.806C91.5114 120.491 92.0952 120.187 92.4688 119.954C92.8542 119.721 93.0527 119.581 93.041 119.557C93.006 119.499 92.1536 120.001 90.6823 120.561C89.9467 120.852 89.0476 121.121 88.0318 121.342C87.0159 121.552 85.8716 121.704 84.669 121.75C83.4663 121.774 82.322 121.692 81.2945 121.54C80.2669 121.377 79.3445 121.156 78.5972 120.922C77.0909 120.444 76.2152 119.989 76.1801 120.059Z" fill="#455A64"/>
<path d="M194.621 323.99L195.719 318.741C182.501 312.896 170.498 304.614 160.339 294.349L101.898 235.276L103.416 218.326L132.187 191.415C132.187 191.415 145.907 182.328 163.69 189.362C183.891 197.364 192.438 208.691 216.024 236.151C225.366 247.035 220.123 237.947 229.254 243.838C229.254 243.838 223.521 274.949 212.685 294.232C204.757 308.347 194.621 323.99 194.621 323.99Z" fill="#AA00CC"/>
<path d="M107.949 241.552C107.879 241.598 107.027 240.467 105.789 238.554C104.551 236.629 102.963 233.899 101.434 230.773C99.904 227.635 98.7246 224.707 97.9657 222.561C97.2067 220.403 96.8447 219.038 96.9148 219.014C97.0082 218.979 97.5103 220.298 98.3743 222.397C99.2384 224.497 100.476 227.378 101.994 230.493C103.512 233.608 105.03 236.349 106.163 238.32C107.307 240.292 108.031 241.505 107.949 241.552Z" fill="#263238"/>
<g opacity="0.3">
<path d="M209.711 280.548C209.711 280.548 211.427 270.959 207.761 261.429C204.095 251.898 194.625 238.483 194.625 238.483L191.367 241.551L209.711 280.548Z" fill="black"/>
</g>
<path d="M159.139 339.213L180.191 284.199L169.099 270.353L148.175 244.666C148.175 244.666 133.24 236.92 126.083 225.488C123.852 221.919 123.42 215.888 125.756 211.478C132.294 199.125 145.828 194.237 159.314 197.923L171.177 205.693C171.177 205.693 210.328 266.993 209.698 278.81C209.254 287.151 176.233 343.634 176.233 343.634L159.139 339.213Z" fill="#FFBF9D"/>
<path d="M160.621 336.868L137.257 338.875C134.793 339.085 132.575 340.438 131.255 342.514L120.805 358.997C120.805 358.997 124.973 360.922 127.729 357.842C130.566 354.669 134.945 348.288 134.945 348.288L132.96 366.649C132.96 366.649 138.343 367.174 139.254 363.08C140.293 358.379 140.374 352.22 140.374 352.22L145.629 369.671C145.629 369.671 151.339 367.793 149.505 361.19C148.349 357.026 147.1 352.733 147.1 352.733L153.511 364.095C153.511 364.095 158.169 363.686 156.955 359.464C156.149 356.652 153.674 351.076 153.674 351.076C153.674 351.076 167.125 352.091 169.799 351.123C173.442 349.805 177.167 342.083 177.167 342.083L160.621 336.868Z" fill="#FFBF9D"/>
<path d="M139.902 194.739C139.902 194.739 120.297 205.273 122.446 219.994C124.594 234.716 141.455 242.392 141.455 242.392L163.372 265.862L197.817 235.964L166.478 197.061" fill="#AA00CC"/>
<path d="M166.468 197.061C166.468 197.061 166.526 197.107 166.631 197.224C166.748 197.364 166.9 197.527 167.075 197.749C167.483 198.239 168.056 198.927 168.791 199.814C170.298 201.657 172.481 204.316 175.237 207.688C180.771 214.512 188.63 224.206 198.017 235.789L198.181 235.999L197.982 236.174C187.929 244.911 176.206 255.107 163.735 265.944L163.56 266.095L163.327 266.294L163.116 266.072C155.387 257.79 147.984 249.846 141.211 242.59L141.305 242.66C137.136 240.584 133.482 237.959 130.411 234.984C127.375 231.998 124.899 228.638 123.522 225.022C123.23 224.101 122.856 223.226 122.658 222.316C122.482 221.394 122.237 220.508 122.144 219.61C121.934 217.801 122.05 216.028 122.401 214.384C123.113 211.071 124.713 208.318 126.371 206.078C129.78 201.61 133.412 198.927 135.875 197.177C137.125 196.314 138.129 195.708 138.806 195.311C139.133 195.136 139.39 194.984 139.588 194.879C139.764 194.786 139.857 194.751 139.869 194.751C139.869 194.763 139.787 194.809 139.612 194.926C139.413 195.043 139.168 195.206 138.853 195.404C138.187 195.824 137.206 196.454 135.98 197.341C133.563 199.125 129.979 201.843 126.651 206.3C125.028 208.528 123.487 211.246 122.809 214.477C122.471 216.087 122.377 217.813 122.587 219.563C122.681 220.438 122.938 221.313 123.113 222.211C123.311 223.097 123.685 223.961 123.977 224.859C126.814 231.905 133.423 238.064 141.538 242.147L141.597 242.182L141.632 242.217C148.404 249.473 155.83 257.405 163.56 265.675L163.128 265.652L163.303 265.501C175.785 254.687 187.532 244.503 197.597 235.789L197.562 236.174C188.244 224.532 180.444 214.792 174.956 207.933C172.247 204.526 170.111 201.832 168.639 199.965C167.927 199.055 167.378 198.356 166.993 197.854C166.818 197.632 166.689 197.446 166.573 197.306C166.503 197.131 166.468 197.072 166.468 197.061Z" fill="#263238"/>
<path d="M142.362 341.383C142.362 341.488 141.591 341.465 140.447 341.791C139.315 342.106 137.785 342.853 136.629 344.229C135.485 345.606 135.018 347.25 134.924 348.417C134.807 349.607 134.971 350.353 134.866 350.365C134.807 350.388 134.492 349.653 134.492 348.394C134.492 347.145 134.913 345.349 136.162 343.833C137.423 342.328 139.116 341.593 140.342 341.371C141.591 341.138 142.374 341.313 142.362 341.383Z" fill="#FF9A6C"/>
<path d="M144.507 344.124C144.542 344.206 144.039 344.544 143.257 345.116C142.872 345.408 142.405 345.746 141.926 346.166C141.471 346.597 140.957 347.064 140.747 347.694C140.303 349.024 140.396 350.4 140.466 351.345C140.56 352.302 140.712 352.885 140.63 352.92C140.56 352.955 140.256 352.395 140.046 351.415C139.859 350.447 139.672 349.024 140.175 347.484C140.455 346.679 141.074 346.154 141.564 345.734C142.09 345.314 142.592 344.999 143.012 344.754C143.888 344.264 144.472 344.054 144.507 344.124Z" fill="#FF9A6C"/>
<path d="M154.284 346.317C154.307 346.398 153.583 346.608 152.404 346.748C151.271 346.912 149.532 347.005 148.469 348.358C147.441 349.7 147.231 351.391 147.453 352.476C147.675 353.584 148.049 354.237 147.955 354.284C147.908 354.319 147.395 353.748 147.033 352.569C146.694 351.391 146.811 349.525 147.99 347.985C148.586 347.215 149.473 346.76 150.255 346.573C151.049 346.375 151.773 346.352 152.357 346.328C153.548 346.293 154.272 346.235 154.284 346.317Z" fill="#FF9A6C"/>
<path d="M172.44 341.371C172.382 341.522 169.579 340.589 166.17 339.283C164.465 338.63 162.936 338.023 161.838 337.556C160.74 337.09 160.063 336.775 160.087 336.74C160.145 336.495 162.982 337.416 166.392 338.711C169.79 340.018 172.499 341.219 172.44 341.371Z" fill="#FF9A6C"/>
<g opacity="0.3">
<path d="M224.934 237.504C224.934 237.504 220.742 274.144 212.522 289.076C204.313 304.007 197.553 316.792 197.553 316.792L196.969 319.615C196.969 319.615 213.643 293.333 216.667 286.801C219.679 280.257 225.179 267.122 228.203 254.36C231.216 241.668 231.695 239.464 231.601 239.464C231.613 239.464 226.837 235.964 224.934 237.504Z" fill="black"/>
</g>
<path d="M286.098 410.211C286.287 410.502 286.541 410.88 286.861 411.345C287.705 412.618 288.727 414.152 289.927 415.949C289.992 416.051 290.061 416.152 290.134 416.254C290.229 416.385 290.32 416.516 290.407 416.647C290.661 416.996 290.901 417.302 291.127 417.563C291.767 418.32 292.258 418.698 292.6 418.698H293.363V422.265H292.327C291.265 422.265 290.251 421.832 289.283 420.967C288.971 421.302 288.614 421.578 288.214 421.796C287.472 422.218 286.636 422.429 285.705 422.429C284.68 422.429 283.407 422.258 281.887 421.916C281.407 421.807 280.927 421.687 280.447 421.556C280.287 421.512 280.138 421.469 280 421.425C279.949 421.411 279.905 421.4 279.869 421.392L279.825 421.382L279.803 421.371L280.861 417.956C281.109 418.029 281.4 418.112 281.734 418.207C282.163 418.316 282.581 418.414 282.989 418.502C284.109 418.742 285.014 418.862 285.705 418.862C286.251 418.862 286.611 418.698 286.785 418.371C286.843 418.269 286.872 418.163 286.872 418.054C286.872 417.865 286.796 417.658 286.643 417.432C286.003 416.487 285.411 415.607 284.865 414.792C284.451 414.174 284.061 413.596 283.698 413.058L282.847 411.782L285.836 409.829L286.098 410.211ZM300.482 418.687C300.853 418.687 301.13 418.611 301.311 418.458C301.559 418.254 301.682 417.894 301.682 417.378V414.727H305.26V417.378C305.26 417.851 305.326 418.171 305.457 418.338C305.624 418.571 305.966 418.687 306.482 418.687C306.853 418.687 307.13 418.611 307.311 418.458C307.551 418.254 307.671 417.894 307.671 417.378V414.727H311.25V417.378C311.25 417.829 311.333 418.149 311.5 418.338C311.697 418.571 312.057 418.687 312.58 418.687H313.977V422.265H312.58C311.082 422.265 310.039 421.934 309.45 421.272C308.584 421.934 307.595 422.265 306.482 422.265C305.057 422.265 304.05 421.934 303.46 421.272C302.595 421.934 301.62 422.265 300.537 422.265C299.388 422.265 298.38 421.934 297.515 421.272C296.926 421.934 295.882 422.265 294.384 422.265H292.813V418.687H294.384C294.908 418.687 295.268 418.571 295.464 418.338C295.631 418.149 295.715 417.829 295.715 417.378V414.727H299.293V417.378C299.293 417.894 299.417 418.254 299.664 418.458C299.839 418.611 300.111 418.687 300.482 418.687ZM303.253 410.211L301.093 412.392L298.933 410.232L301.093 408.051L303.253 410.211ZM307.988 410.178L305.85 412.338L303.635 410.2L305.817 408.018L307.988 410.178ZM305.37 407.363L303.471 409.262L301.595 407.385L303.493 405.487L305.37 407.363ZM320.976 416.723C321.035 417.072 321.064 417.407 321.064 417.727C321.064 418.716 320.78 419.603 320.213 420.389C319.304 421.64 317.824 422.265 315.773 422.265H313.438V418.687H315.696C316.351 418.687 316.813 418.6 317.082 418.425C317.358 418.258 317.496 417.992 317.496 417.629C317.496 417.52 317.482 417.4 317.453 417.269C317.38 416.898 317.307 416.52 317.235 416.134C317.205 415.989 317.176 415.832 317.147 415.665L317.104 415.458L317.071 415.251C316.962 414.654 316.878 414.229 316.82 413.974L320.235 412.938C320.453 413.963 320.7 415.225 320.976 416.723ZM314.802 408.716L317.071 406.425L319.384 408.738L317.082 411.029L314.802 408.716ZM334.524 414.738C334.153 416.062 333.906 417.145 333.783 417.989C333.775 418.047 333.772 418.105 333.772 418.163C333.772 418.302 333.797 418.422 333.848 418.523C333.935 418.712 334.092 418.807 334.317 418.807H347.201C347.724 418.807 347.986 418.567 347.986 418.087V414.716H351.564V417.378C351.601 417.843 351.692 418.163 351.837 418.338C352.026 418.571 352.379 418.687 352.895 418.687H354.15V422.265H352.895C351.586 422.265 350.626 422.018 350.015 421.523C349.448 421.902 348.659 422.149 347.648 422.265C346.913 422.345 345.608 422.385 343.732 422.385H337.546C335.495 422.385 334.183 422.334 333.608 422.232C332.488 422.043 331.633 421.502 331.044 420.607C330.673 420.047 330.441 419.407 330.346 418.687C330.317 418.425 330.303 418.152 330.303 417.869C330.303 417.556 330.321 417.232 330.357 416.898C330.408 416.447 330.543 415.803 330.761 414.967C330.826 414.698 330.899 414.425 330.979 414.149C331.008 414.054 331.033 413.967 331.055 413.887C331.07 413.822 331.081 413.782 331.088 413.767L334.524 414.738ZM343.404 414.116L341.266 411.956L343.383 409.774L345.564 411.956L343.404 414.116ZM338.833 414.127L336.695 411.967L338.801 409.785L340.983 411.967L338.833 414.127ZM361.988 414.912L361.966 414.662C361.945 414.48 361.923 414.316 361.901 414.171C361.843 413.785 361.759 413.462 361.65 413.2C361.374 412.509 360.883 412.131 360.177 412.065L360.068 412.054H359.97C359.497 412.054 359.123 412.196 358.846 412.48C358.599 412.742 358.476 413.072 358.476 413.472V413.571C358.505 414.276 358.861 414.734 359.545 414.945C359.974 415.076 360.796 415.142 362.01 415.142L361.988 414.912ZM360.166 408.662C362.152 408.662 363.592 409.531 364.486 411.269C365.156 412.556 365.49 414.225 365.49 416.276C365.49 418.48 364.646 420.098 362.959 421.131C361.716 421.887 360.185 422.265 358.366 422.265H353.785V418.687H358.366C359.581 418.687 360.479 418.607 361.061 418.447C359.396 418.447 358.036 418.091 356.981 417.378C355.73 416.527 355.105 415.276 355.105 413.625C355.105 413.138 355.174 412.643 355.312 412.142C355.479 411.531 355.737 410.989 356.086 410.516C356.981 409.28 358.341 408.662 360.166 408.662ZM357.101 405.083L359.37 402.792L361.683 405.105L359.381 407.396L357.101 405.083ZM372.737 422.265H371.755C370.948 422.265 370.224 422.123 369.584 421.84C369.097 421.629 368.672 421.342 368.308 420.978C367.944 420.614 367.657 420.189 367.446 419.702C367.162 419.062 367.021 418.338 367.021 417.531V406.534H370.588V417.531C370.588 417.974 370.672 418.28 370.839 418.447C370.999 418.607 371.304 418.687 371.755 418.687H372.737V422.265ZM381.642 416.723C381.7 417.072 381.729 417.407 381.729 417.727C381.729 418.716 381.445 419.603 380.878 420.389C379.969 421.64 378.489 422.265 376.438 422.265H372.173V418.687H376.362C377.016 418.687 377.478 418.6 377.747 418.425C378.023 418.258 378.162 417.992 378.162 417.629C378.162 417.52 378.147 417.4 378.118 417.269C378.045 416.898 377.973 416.52 377.9 416.134C377.871 415.989 377.842 415.832 377.813 415.665L377.769 415.458L377.736 415.251C377.627 414.654 377.543 414.229 377.485 413.974L380.9 412.938C381.118 413.963 381.365 415.225 381.642 416.723ZM379.1 428.505L376.962 426.345L379.078 424.163L381.26 426.345L379.1 428.505ZM374.496 428.516L372.358 426.356L374.463 424.174L376.645 426.356L374.496 428.516ZM398.519 414.716V417.694C398.519 418.007 398.679 418.258 398.999 418.447C399.253 418.607 399.512 418.687 399.773 418.687H400.275V422.265H399.773C399.352 422.265 398.904 422.196 398.432 422.058C398.221 423.665 397.679 424.96 396.806 425.942C395.533 427.389 393.672 428.112 391.221 428.112H390.141V424.534H391.221C392.559 424.534 393.512 424.232 394.079 423.629C394.653 423.025 394.941 422.014 394.941 420.596V414.716H398.519ZM406.03 413.178L405.986 413.56C406.161 413.443 406.415 413.291 406.75 413.102C407.768 412.563 408.808 412.294 409.87 412.294C411.833 412.294 413.241 412.916 414.091 414.16C414.404 414.611 414.63 415.131 414.768 415.72C414.87 416.149 414.921 416.585 414.921 417.029C414.921 417.64 414.859 418.192 414.735 418.687H416.251C416.259 418.687 416.262 418.985 416.262 419.582C416.262 420.178 416.259 421.072 416.251 422.265H399.735V418.687H401.71L402.462 417.509V406.523H406.03V413.178ZM409.684 418.687C410.513 418.687 411.07 418.512 411.353 418.163C411.462 418.025 411.535 417.854 411.571 417.651C411.601 417.512 411.615 417.32 411.615 417.072C411.615 416.265 411.095 415.862 410.055 415.862C409.321 415.862 408.386 416.28 407.251 417.116C406.859 417.407 406.473 417.723 406.095 418.065C405.797 418.342 405.59 418.549 405.473 418.687H409.684ZM407.971 408.105L410.241 405.814L412.553 408.127L410.251 410.418L407.971 408.105ZM423.258 416.723C423.316 417.072 423.345 417.407 423.345 417.727C423.345 418.716 423.061 419.603 422.494 420.389C421.585 421.64 420.105 422.265 418.054 422.265H415.719V418.687H417.978C418.632 418.687 419.094 418.6 419.363 418.425C419.639 418.258 419.778 417.992 419.778 417.629C419.778 417.52 419.763 417.4 419.734 417.269C419.661 416.898 419.589 416.52 419.516 416.134C419.487 415.989 419.458 415.832 419.429 415.665L419.385 415.458L419.352 415.251C419.243 414.654 419.159 414.229 419.101 413.974L422.516 412.938C422.734 413.963 422.981 415.225 423.258 416.723ZM417.083 408.716L419.352 406.425L421.665 408.738L419.363 411.029L417.083 408.716ZM438.54 409.72L438.737 410.003C438.78 410.069 438.82 410.123 438.857 410.167C438.907 410.24 438.955 410.312 438.998 410.385C439.122 410.56 439.253 410.742 439.391 410.931C439.747 411.447 440.144 412.018 440.58 412.643C441.147 413.443 441.766 414.32 442.435 415.272C442.958 416.029 443.257 416.818 443.329 417.64C443.344 417.785 443.351 417.931 443.351 418.076C443.351 418.76 443.195 419.407 442.882 420.018C442.497 420.752 441.944 421.323 441.224 421.731C440.497 422.145 439.682 422.352 438.78 422.352C437.733 422.352 436.369 422.134 434.689 421.698C434.187 421.567 433.682 421.422 433.173 421.262C433.013 421.218 432.86 421.171 432.715 421.12C432.664 421.105 432.62 421.094 432.584 421.087L432.551 421.065H432.529L433.675 417.672C433.951 417.767 434.275 417.869 434.646 417.978C435.104 418.109 435.555 418.229 435.998 418.338C437.191 418.629 438.118 418.774 438.78 418.774C439.253 418.774 439.562 418.64 439.707 418.371C439.758 418.269 439.784 418.16 439.784 418.043C439.784 417.832 439.693 417.596 439.511 417.334C438.842 416.382 438.224 415.502 437.657 414.694C437.227 414.083 436.827 413.512 436.457 412.982C435.875 412.16 435.584 411.745 435.584 411.738L438.54 409.72ZM450.831 420.607C450.831 422.876 450.26 424.658 449.119 425.952C447.846 427.4 445.984 428.123 443.533 428.123H442.453V424.545H443.533C444.871 424.545 445.824 424.243 446.391 423.64C446.966 423.036 447.253 422.025 447.253 420.607V414.727H450.831V420.607ZM459.178 418.698V417.574C459.178 416.905 459.036 416.374 458.752 415.982C458.469 415.596 458.083 415.403 457.596 415.403C457.101 415.403 456.709 415.596 456.418 415.982C456.149 416.338 456.014 416.8 456.014 417.367C456.014 417.432 456.018 417.502 456.025 417.574C456.047 417.96 456.221 418.251 456.549 418.447C456.825 418.614 457.174 418.698 457.596 418.698H459.178ZM457.596 411.825C459.203 411.825 460.483 412.411 461.436 413.582C462.316 414.651 462.756 415.982 462.756 417.574V418.698H463.836V422.265H462.723C462.541 424.527 461.436 426.145 459.407 427.12C458.614 427.498 457.687 427.771 456.625 427.938C455.789 428.076 454.883 428.145 453.909 428.145V424.567C455.727 424.567 457.094 424.312 458.01 423.803C458.752 423.396 459.123 422.883 459.123 422.265H457.596C456.301 422.265 455.199 421.916 454.29 421.218C453.199 420.374 452.654 419.16 452.654 417.574C452.654 416.069 453.018 414.792 453.745 413.745C454.625 412.465 455.909 411.825 457.596 411.825ZM472.167 419.134C472.261 418.872 472.308 418.589 472.308 418.283C472.308 418.203 472.305 418.123 472.298 418.043C472.261 417.483 472.098 417 471.807 416.592C471.508 416.178 471.163 415.971 470.77 415.971C470.232 415.971 469.788 416.291 469.439 416.931C469.316 417.149 469.203 417.418 469.101 417.738C469.065 417.84 469.025 417.963 468.981 418.109L468.938 418.272L468.894 418.414C469.316 418.778 469.854 419.08 470.508 419.32C471.047 419.509 471.476 419.603 471.796 419.603C471.927 419.603 472.05 419.447 472.167 419.134ZM470.77 412.392C472.458 412.392 473.745 413.098 474.632 414.509C474.974 415.054 475.232 415.672 475.407 416.363C475.552 416.952 475.625 417.512 475.625 418.043C475.625 419.811 475.181 421.134 474.294 422.014C473.959 422.356 473.567 422.618 473.116 422.8C472.752 422.945 472.385 423.029 472.014 423.051C471.941 423.058 471.839 423.062 471.708 423.062C470.799 423.062 469.832 422.836 468.807 422.385C468.458 422.24 468.083 422.054 467.683 421.829L467.443 421.698L467.225 421.578C467.058 421.476 466.938 421.407 466.865 421.371C466.268 421.967 465.276 422.265 463.887 422.265H463.298V418.687H463.745C464.479 418.687 464.963 418.534 465.196 418.229C465.298 418.091 465.501 417.545 465.807 416.592C465.828 416.527 465.85 416.465 465.872 416.407C465.894 416.327 465.923 416.247 465.959 416.167C466.032 415.963 466.116 415.767 466.21 415.578C466.458 415.047 466.748 414.578 467.083 414.171C468.05 412.985 469.279 412.392 470.77 412.392ZM490.701 417.585C491.093 417.265 491.29 416.843 491.29 416.32V416.265C491.283 416.047 491.239 415.756 491.159 415.392C491.137 415.283 491.101 415.116 491.05 414.891L490.984 414.607L490.919 414.312C489.763 414.712 488.999 415.098 488.628 415.469C488.286 415.811 488.115 416.185 488.115 416.592V416.669C488.137 417.098 488.326 417.447 488.683 417.716C488.908 417.883 489.199 417.967 489.555 417.967C489.999 417.967 490.381 417.84 490.701 417.585ZM494.432 413.68C494.49 413.927 494.563 414.243 494.65 414.629L494.759 415.076L494.857 415.502C495.01 416.156 495.155 416.745 495.293 417.269C495.453 417.858 495.741 418.24 496.155 418.414C496.403 418.523 496.719 418.6 497.104 418.643C497.366 418.672 497.715 418.687 498.152 418.687V422.265C497.497 422.265 496.933 422.232 496.461 422.167C495.806 422.08 495.217 421.92 494.693 421.687C493.995 421.367 493.413 420.931 492.948 420.378L492.817 420.225C492.446 420.552 492.024 420.814 491.552 421.011C490.948 421.251 490.308 421.371 489.632 421.371L489.523 421.36H489.403C488.573 421.323 487.821 421.123 487.144 420.76C485.879 420.098 485.101 419.058 484.81 417.64C484.73 417.262 484.69 416.887 484.69 416.516C484.69 416.029 484.759 415.552 484.897 415.087C485.166 414.265 485.635 413.534 486.304 412.894C487.039 412.189 488.315 411.545 490.133 410.963L489.926 410.003L493.417 409.207C493.832 411.025 494.17 412.516 494.432 413.68ZM503.861 412.098C504.457 412.185 505.941 412.556 508.312 413.211C509.141 413.436 510.017 413.68 510.941 413.942C511.668 414.152 512.228 414.316 512.621 414.432L513.177 417.585L512.861 417.825L512.545 418.043C512.29 418.232 512.094 418.378 511.956 418.48C512.326 418.574 512.85 418.636 513.526 418.665C513.766 418.672 514.025 418.68 514.301 418.687H514.868V422.265C512.636 422.265 511.046 422.043 510.101 421.6C509.548 421.345 509.094 421.003 508.737 420.574C508.126 420.909 507.49 421.189 506.828 421.414C505.156 421.982 502.083 422.265 497.61 422.265V418.687C500.497 418.687 502.585 418.585 503.872 418.382C505.428 418.134 506.817 417.622 508.039 416.843L507.243 416.625L506.479 416.407C505.854 416.225 505.385 416.094 505.072 416.014C504.112 415.752 503.508 415.622 503.261 415.622C503.065 415.622 502.879 415.734 502.705 415.96C502.523 416.178 502.385 416.476 502.29 416.854L498.832 415.949C499.166 414.654 499.788 413.654 500.697 412.949C501.468 412.345 502.297 412.043 503.185 412.043C503.403 412.043 503.628 412.062 503.861 412.098ZM520.605 418.382C521.332 418.185 521.848 417.891 522.154 417.498C522.372 417.214 522.481 416.862 522.481 416.44C522.481 415.931 522.336 415.498 522.045 415.142C521.703 414.72 521.223 414.509 520.605 414.509C519.986 414.509 519.506 414.72 519.165 415.142C518.874 415.498 518.728 415.931 518.728 416.44C518.728 416.862 518.841 417.214 519.066 417.498C519.365 417.891 519.877 418.185 520.605 418.382ZM520.605 410.931C522.183 410.931 523.481 411.472 524.499 412.556C525.488 413.603 525.983 414.898 525.983 416.44C525.983 417.269 525.83 418.018 525.525 418.687H526.823V422.265H525.241C523.466 422.265 521.921 422.065 520.605 421.665C519.361 422.065 517.812 422.265 515.957 422.265H514.376V418.687H515.674C515.368 418.018 515.216 417.269 515.216 416.44C515.216 414.898 515.71 413.603 516.699 412.556C517.725 411.472 519.026 410.931 520.605 410.931ZM518.259 407.592L520.528 405.302L522.841 407.614L520.539 409.905L518.259 407.592ZM540.786 418.687C541.616 418.687 542.172 418.512 542.456 418.163C542.565 418.025 542.637 417.854 542.674 417.651C542.703 417.512 542.717 417.32 542.717 417.072C542.717 416.265 542.197 415.862 541.157 415.862C540.423 415.862 539.488 416.28 538.354 417.116C537.961 417.407 537.576 417.723 537.197 418.065C536.899 418.342 536.692 418.549 536.576 418.687H540.786ZM540.972 412.294C542.928 412.294 544.336 412.916 545.194 414.16C545.506 414.611 545.732 415.131 545.87 415.72C545.972 416.156 546.023 416.592 546.023 417.029C546.023 419.182 545.27 420.687 543.765 421.545C543.248 421.836 542.663 422.04 542.008 422.156C541.776 422.2 541.536 422.229 541.288 422.243L541.005 422.265H534.47C533.306 422.265 532.299 421.956 531.448 421.338C530.554 421.956 529.412 422.265 528.023 422.265H526.321V418.687H528.023C528.772 418.687 529.256 418.571 529.474 418.338C529.539 418.272 529.583 418.178 529.605 418.054C529.626 417.967 529.637 417.865 529.637 417.749V414.716H533.216V417.596C533.986 416.527 534.725 415.643 535.43 414.945C536.23 414.145 537.037 413.531 537.852 413.102C538.87 412.563 539.91 412.294 540.972 412.294Z" fill="#263238"/>
</g>
<defs>
<clipPath id="clip0_1378_4666">
<rect width="847" height="509" fill="white"/>
</clipPath>
</defs>
</svg>
